<?xml version="1.0" standalone="no"?>
<!DOCTYPE svg PUBLIC "-//W3C//DTD SVG 20010904//EN"
 "http://www.w3.org/TR/2001/REC-SVG-20010904/DTD/svg10.dtd">
<svg version="1.0" xmlns="http://www.w3.org/2000/svg"
 width="512.000000pt" height="512.000000pt" viewBox="0 0 512.000000 512.000000"
 preserveAspectRatio="xMidYMid meet">
<metadata>
Created by potrace 1.16, written by Peter Selinger 2001-2019
</metadata>
<g transform="translate(0.000000,512.000000) scale(0.100000,-0.100000)"
fill="#2D57A6" stroke="none">
<path d="M1984 5012 c-174 -62 -275 -247 -230 -422 23 -89 44 -119 178 -255
l118 -121 -160 -159 -160 -159 -128 126 c-95 95 -142 134 -182 152 -185 82
-393 3 -478 -182 -22 -47 -26 -72 -26 -142 0 -129 24 -173 182 -332 l126 -128
-159 -160 -159 -160 -126 125 c-159 157 -201 180 -335 180 -76 0 -98 -4 -145
-26 -81 -39 -134 -90 -172 -167 -30 -61 -33 -74 -33 -162 0 -137 21 -177 177
-336 l122 -124 -121 -123 c-151 -153 -175 -195 -181 -322 -3 -75 0 -100 18
-147 30 -80 102 -157 182 -194 55 -25 75 -29 153 -29 133 0 176 23 335 180
l126 125 159 -160 160 -160 -127 -127 c-158 -159 -183 -204 -182 -333 0 -70 5
-95 26 -142 36 -78 98 -142 176 -180 58 -29 74 -32 151 -32 130 0 174 24 333
182 l128 126 160 -159 160 -159 -125 -126 c-157 -159 -180 -202 -180 -335 0
-78 4 -98 29 -153 37 -80 114 -152 194 -182 47 -18 72 -21 147 -18 127 6 169
30 322 181 l123 121 127 -125 c163 -160 207 -184 338 -184 82 0 97 3 157 33
129 63 200 177 199 322 0 79 -16 141 -52 193 -12 18 -75 86 -140 152 l-119
120 160 160 160 159 128 -126 c95 -95 142 -134 182 -152 185 -82 393 -3 478
182 22 47 26 72 26 142 0 130 -24 174 -182 333 l-127 127 160 160 159 160 126
-125 c159 -157 202 -180 335 -180 78 0 98 4 153 29 80 37 152 114 182 194 18
47 21 72 18 147 -6 127 -30 169 -181 322 l-121 123 122 124 c157 160 177 198
177 341 0 95 -2 103 -34 163 -40 74 -93 124 -171 161 -47 22 -69 26 -145 26
-133 0 -174 -22 -334 -179 l-127 -125 -159 159 -159 160 126 128 c158 159 182
203 182 333 0 77 -3 93 -32 151 -38 78 -101 140 -180 176 -47 22 -72 26 -142
26 -129 0 -173 -24 -332 -182 l-128 -126 -160 159 -159 159 122 126 c74 75
132 143 145 171 70 146 40 313 -77 422 -76 71 -127 90 -241 91 -137 1 -176
-19 -336 -175 l-124 -122 -124 122 c-150 147 -198 173 -321 178 -59 3 -93 -1
-131 -15z m204 -151 c20 -11 88 -71 149 -133 l113 -113 -145 -145 -145 -145
-116 115 c-65 64 -124 133 -135 155 -46 98 4 226 106 271 45 20 129 17 173 -5z
m921 0 c105 -54 149 -181 96 -280 -7 -14 -252 -264 -544 -556 l-531 -530 -145
145 -145 145 527 528 c355 356 541 535 568 548 52 24 126 24 174 0z m426
-1331 l570 -570 -145 -145 -145 -145 -572 572 -573 573 142 142 c79 79 145
143 148 143 3 0 262 -256 575 -570z m-2161 496 c23 -14 275 -259 561 -545
l520 -521 -148 -147 -147 -148 -521 520 c-286 286 -532 540 -547 565 -67 113
-6 258 126 301 41 13 111 2 156 -25z m2564 10 c108 -56 149 -187 90 -286 -15
-25 -74 -92 -132 -150 l-106 -105 -147 148 -148 147 100 101 c112 112 142 136
194 156 41 15 108 10 149 -11z m-1215 -494 l157 -157 -160 -160 -160 -160
-160 160 -160 160 157 157 c87 87 160 158 163 158 3 0 76 -71 163 -158z
m-1628 -1083 c-292 -292 -547 -539 -567 -550 -79 -41 -186 -17 -246 57 -44 53
-57 110 -42 176 12 52 20 61 554 596 l541 542 145 -145 145 -145 -530 -531z
m1613 -46 l-573 -573 -147 147 -148 148 572 572 573 573 147 -147 148 -148
-572 -572z m-2183 798 c22 -11 91 -70 155 -135 l115 -116 -145 -145 -145 -145
-113 113 c-137 135 -156 167 -150 253 5 80 40 133 111 169 61 30 116 32 172 6z
m4242 -6 c71 -36 106 -89 111 -169 3 -49 0 -71 -16 -102 -12 -23 -240 -258
-549 -567 l-528 -527 -145 145 -145 145 530 531 c356 357 543 537 570 550 56
26 111 24 172 -6z m-2872 -805 l-160 -160 -160 160 -160 160 160 160 160 160
160 -160 160 -160 -160 -160z m1650 0 l-160 -160 -160 160 -160 160 160 160
160 160 160 -160 160 -160 -160 -160z m-1240 -1240 l-145 -145 -572 572 -573
573 145 145 145 145 572 -572 573 -573 -145 -145z m1187 763 c289 -291 534
-544 544 -563 23 -44 24 -134 2 -175 -59 -112 -188 -153 -288 -93 -25 15 -279
261 -565 547 l-520 521 145 145 c80 80 147 145 150 145 3 0 242 -237 532 -527z
m1370 263 c29 -56 22 -148 -14 -204 -33 -49 -114 -92 -172 -92 -67 1 -115 32
-236 154 l-115 116 145 145 145 145 113 -113 c62 -61 123 -130 134 -151z
m-2139 -294 l157 -157 -160 -160 -160 -160 -160 160 -160 160 157 157 c87 87
160 158 163 158 3 0 76 -71 163 -158z m-1243 -417 l145 -146 -121 -119 c-107
-105 -127 -120 -176 -135 -80 -23 -137 -7 -198 55 -70 69 -84 151 -42 235 14
28 229 255 242 255 3 0 70 -65 150 -145z m1658 2 l142 -142 -533 -532 c-368
-368 -543 -537 -569 -548 -51 -21 -121 -19 -167 4 -69 36 -121 115 -121 186 0
78 0 79 558 638 295 295 539 537 542 537 3 0 69 -64 148 -143z m-56 -804 c156
-156 177 -212 123 -320 -36 -71 -89 -106 -169 -111 -86 -6 -109 8 -249 146
l-117 117 142 142 c79 79 145 143 148 143 3 0 58 -53 122 -117z"/>
</g>
</svg>
