<?xml version="1.0" standalone="no"?>
<!DOCTYPE svg PUBLIC "-//W3C//DTD SVG 20010904//EN"
 "http://www.w3.org/TR/2001/REC-SVG-20010904/DTD/svg10.dtd">
<svg version="1.0" xmlns="http://www.w3.org/2000/svg"
 width="1280.000000pt" height="720.000000pt" viewBox="0 0 1280.000000 720.000000"
 preserveAspectRatio="xMidYMid meet">
<metadata>
Created by potrace 1.16, written by Peter Selinger 2001-2019
</metadata>
<g transform="translate(0.000000,720.000000) scale(0.100000,-0.100000)"
fill="#2D57A6" stroke="none">
<path d="M4486 6787 c-56 -31 -78 -74 -78 -151 0 -68 15 -107 56 -145 32 -30
125 -40 166 -19 23 12 70 72 70 88 0 13 -34 22 -38 10 -10 -28 -55 -68 -82
-74 -76 -15 -130 43 -130 138 0 89 29 127 101 134 46 4 51 2 82 -30 22 -23 38
-33 50 -29 15 6 15 9 -3 39 -38 61 -125 79 -194 39z"/>
<path d="M2900 6785 c0 -12 13 -15 55 -15 l54 0 3 -152 c3 -145 4 -153 23
-153 19 0 20 8 23 153 l3 152 54 0 c42 0 55 3 55 15 0 13 -22 15 -135 15 -113
0 -135 -2 -135 -15z"/>
<path d="M5260 6630 c0 -163 1 -170 20 -170 19 0 20 7 20 90 0 102 15 130 70
130 41 0 50 -23 50 -129 0 -84 1 -91 20 -91 19 0 20 7 20 96 0 90 -9 130 -34
146 -20 14 -89 8 -108 -9 -17 -15 -18 -14 -18 45 0 55 -2 62 -20 62 -19 0 -20
-7 -20 -170z"/>
<path d="M5680 6631 c0 -164 1 -171 20 -171 18 0 20 7 20 70 l0 70 53 0 c70 0
123 16 142 43 21 30 19 99 -4 128 -18 22 -28 24 -125 27 l-106 4 0 -171z m190
119 c11 -11 20 -31 20 -45 0 -45 -32 -65 -105 -65 l-65 0 0 65 0 65 65 0 c52
0 69 -4 85 -20z"/>
<path d="M6792 6633 c3 -151 5 -168 21 -171 16 -3 17 9 17 139 0 90 4 139 9
134 6 -6 30 -68 54 -140 60 -178 67 -178 132 9 l50 141 3 -142 c2 -135 4 -143
22 -143 19 0 20 7 20 171 l0 170 -32 -3 c-31 -3 -32 -4 -77 -140 -25 -76 -48
-138 -51 -138 -3 0 -26 62 -51 138 l-45 137 -37 3 -37 3 2 -168z"/>
<path d="M9060 6643 c0 -161 6 -191 34 -180 14 6 16 29 16 172 l0 165 -25 0
-25 0 0 -157z"/>
<path d="M3682 6778 c-7 -7 -12 -25 -12 -40 0 -18 -5 -28 -15 -28 -8 0 -15 -7
-15 -15 0 -8 7 -15 15 -15 12 0 15 -18 15 -100 0 -88 2 -100 19 -110 33 -17
61 -12 61 10 0 13 -7 20 -20 20 -19 0 -20 7 -20 90 0 83 1 90 20 90 11 0 20 7
20 15 0 8 -9 15 -20 15 -17 0 -20 7 -20 40 0 41 -7 49 -28 28z"/>
<path d="M5153 6783 c-7 -2 -13 -20 -13 -39 0 -24 -5 -34 -15 -34 -8 0 -15 -7
-15 -15 0 -8 7 -15 15 -15 12 0 15 -18 15 -100 0 -88 2 -100 19 -110 33 -17
61 -12 61 10 0 13 -7 20 -20 20 -19 0 -20 7 -20 90 0 83 1 90 20 90 11 0 20 7
20 15 0 8 -9 15 -20 15 -17 0 -20 7 -20 40 0 40 -3 43 -27 33z"/>
<path d="M6543 6783 c-7 -2 -13 -20 -13 -39 0 -24 -5 -34 -15 -34 -8 0 -15 -7
-15 -15 0 -8 7 -15 15 -15 12 0 15 -18 15 -100 0 -88 2 -100 19 -110 33 -17
61 -12 61 10 0 13 -7 20 -20 20 -19 0 -20 7 -20 90 0 83 1 90 20 90 11 0 20 7
20 15 0 8 -9 15 -20 15 -17 0 -20 7 -20 40 0 40 -3 43 -27 33z"/>
<path d="M8013 6783 c-7 -2 -13 -20 -13 -39 0 -24 -5 -34 -15 -34 -8 0 -15 -7
-15 -15 0 -8 7 -15 15 -15 12 0 15 -18 15 -100 0 -88 2 -100 19 -110 33 -17
61 -12 61 10 0 13 -7 20 -20 20 -19 0 -20 7 -20 90 0 83 1 90 20 90 11 0 20 7
20 15 0 8 -9 15 -20 15 -17 0 -20 7 -20 40 0 40 -3 43 -27 33z"/>
<path d="M3184 6692 c-32 -25 -44 -55 -44 -109 0 -79 39 -122 110 -123 48 0
83 17 100 51 18 32 -16 36 -45 5 -14 -15 -35 -26 -50 -26 -31 0 -75 41 -75 70
0 19 6 20 90 20 90 0 90 0 90 25 0 34 -25 82 -49 95 -31 16 -103 12 -127 -8z"/>
<path d="M3441 6650 l42 -59 -41 -60 c-23 -32 -42 -62 -42 -65 0 -3 9 -6 20
-6 14 0 31 16 52 50 17 28 32 50 34 50 1 0 18 -22 38 -50 33 -46 66 -65 66
-38 0 6 -18 36 -41 65 l-41 54 29 40 c61 86 58 79 32 79 -17 0 -31 -11 -49
-40 -14 -22 -28 -40 -31 -40 -4 0 -18 18 -33 40 -19 29 -33 40 -51 40 -26 0
-25 0 16 -60z"/>
<path d="M4027 6699 c-45 -26 -63 -134 -30 -189 34 -59 125 -69 174 -21 16 16
29 34 29 40 0 20 -32 11 -56 -14 -31 -34 -76 -33 -103 1 -12 15 -21 35 -21 45
0 17 9 19 90 19 90 0 90 0 90 25 0 34 -25 82 -49 95 -25 13 -101 13 -124 -1z"/>
<path d="M4881 6681 c-28 -26 -31 -35 -31 -86 0 -89 38 -135 110 -135 72 0
110 46 110 135 0 49 -4 60 -29 86 -25 24 -38 29 -79 29 -41 0 -55 -5 -81 -29z
m130 -22 c18 -18 21 -30 17 -80 -3 -43 -9 -63 -24 -74 -28 -21 -64 -18 -91 7
-31 29 -33 118 -3 148 26 26 74 26 101 -1z"/>
<path d="M6250 6585 c0 -118 1 -125 20 -125 19 0 20 7 20 90 0 99 15 130 64
130 46 0 56 -23 56 -126 0 -89 1 -94 21 -94 20 0 21 4 17 111 -3 96 -6 113
-22 125 -27 19 -95 18 -118 -3 -17 -15 -18 -15 -18 0 0 10 -8 17 -20 17 -19 0
-20 -7 -20 -125z"/>
<path d="M7201 6681 c-28 -26 -31 -35 -31 -86 0 -89 38 -135 110 -135 72 0
110 46 110 135 0 49 -4 60 -29 86 -25 24 -38 29 -79 29 -41 0 -55 -5 -81 -29z
m130 -22 c18 -18 21 -30 17 -80 -3 -43 -9 -63 -24 -74 -28 -21 -64 -18 -91 7
-31 29 -33 118 -3 148 26 26 74 26 101 -1z"/>
<path d="M7450 6585 c0 -118 1 -125 20 -125 19 0 20 7 20 90 0 99 15 130 64
130 46 0 56 -23 56 -126 0 -89 1 -94 21 -94 20 0 21 4 17 111 -3 96 -6 113
-22 125 -27 19 -95 18 -118 -3 -17 -15 -18 -15 -18 0 0 10 -8 17 -20 17 -19 0
-20 -7 -20 -125z"/>
<path d="M7741 6681 c-27 -26 -31 -35 -31 -85 0 -30 5 -67 12 -81 22 -48 96
-69 151 -44 37 17 57 60 57 124 0 49 -4 60 -29 86 -25 24 -38 29 -79 29 -41 0
-55 -5 -81 -29z m127 -21 c30 -28 31 -106 1 -144 -47 -60 -119 -15 -119 75 0
36 5 54 20 69 26 26 70 26 98 0z"/>
<path d="M8141 6681 c-27 -26 -31 -35 -31 -85 0 -30 5 -67 12 -81 22 -48 96
-69 151 -44 37 17 57 60 57 124 0 49 -4 60 -29 86 -25 24 -38 29 -79 29 -41 0
-55 -5 -81 -29z m127 -21 c30 -28 31 -106 1 -144 -47 -60 -119 -15 -119 75 0
36 5 54 20 69 26 26 70 26 98 0z"/>
<path d="M8392 6588 c3 -108 5 -123 21 -126 15 -3 17 6 17 87 0 78 3 94 20
111 23 23 58 26 83 8 13 -10 17 -33 19 -108 3 -81 6 -95 21 -98 15 -3 17 7 17
96 0 85 -3 103 -21 126 -16 20 -29 26 -61 26 -25 0 -49 -7 -60 -17 -17 -15
-18 -15 -18 0 0 10 -8 17 -20 17 -20 0 -20 -5 -18 -122z"/>
<path d="M8694 6692 c-32 -25 -44 -55 -44 -107 0 -82 41 -125 118 -125 40 0
76 19 92 51 18 32 -16 36 -45 5 -14 -15 -35 -26 -50 -26 -31 0 -75 41 -75 70
0 19 6 20 90 20 90 0 90 0 90 25 0 34 -25 82 -49 95 -31 16 -103 12 -127 -8z"/>
<path d="M9207 6699 c-45 -26 -63 -134 -30 -189 43 -74 165 -63 188 18 10 34
-26 28 -47 -8 -19 -33 -59 -40 -91 -15 -21 15 -33 80 -23 119 15 59 79 76 115
30 20 -25 41 -25 41 0 0 7 -10 22 -23 34 -25 24 -97 30 -130 11z"/>
<path d="M9429 6681 c-25 -26 -29 -37 -29 -86 0 -64 20 -107 57 -124 55 -25
129 -4 151 44 7 14 12 51 12 81 0 48 -4 60 -29 85 -25 25 -37 29 -81 29 -44 0
-56 -4 -81 -29z m129 -21 c17 -16 22 -32 22 -72 0 -60 -27 -98 -69 -98 -46 1
-64 24 -69 89 -4 50 -1 62 17 80 27 27 71 27 99 1z"/>
<path d="M9680 6585 c0 -118 1 -125 20 -125 19 0 20 7 20 90 0 99 15 130 64
130 46 0 56 -23 56 -126 0 -87 1 -94 20 -94 19 0 20 7 20 99 0 84 -3 102 -21
125 -16 20 -29 26 -61 26 -25 0 -49 -7 -60 -17 -17 -15 -18 -15 -18 0 0 10 -8
17 -20 17 -19 0 -20 -7 -20 -125z"/>
<path d="M5203 5545 c-79 -17 -152 -57 -219 -118 -65 -59 -121 -144 -108 -163
7 -11 185 -129 375 -250 l37 -23 46 79 c60 103 147 204 226 260 116 83 115 68
6 134 -53 32 -114 65 -135 72 -62 21 -159 25 -228 9z"/>
<path d="M5712 5320 c-121 -66 -231 -177 -304 -306 -21 -36 -38 -69 -38 -72 0
-9 113 -82 126 -82 6 0 21 19 34 43 72 129 178 248 286 318 35 23 64 44 64 48
0 3 -27 22 -59 42 l-59 37 -50 -28z"/>
<path d="M5904 5172 c-81 -52 -177 -143 -229 -216 -43 -62 -85 -137 -85 -154
0 -5 72 -56 160 -113 292 -188 363 -235 550 -358 247 -162 226 -154 263 -106
84 110 345 324 426 350 12 3 21 9 21 13 0 4 -69 48 -153 98 -83 50 -313 188
-511 307 -197 120 -364 217 -371 217 -6 0 -38 -17 -71 -38z"/>
<path d="M4811 5107 c-21 -123 -33 -107 176 -242 102 -66 191 -121 197 -122 9
-2 41 74 62 147 2 9 -9 23 -29 35 -17 12 -110 71 -205 133 -94 62 -176 112
-181 112 -5 0 -14 -28 -20 -63z"/>
<path d="M4800 4198 l1 -673 152 -97 152 -97 6 502 c5 445 8 517 27 636 12 73
24 141 26 150 4 12 -32 40 -141 111 -81 52 -164 105 -185 118 l-38 23 0 -673z"/>
<path d="M5521 4634 c-12 -41 -21 -81 -19 -90 3 -14 881 -594 899 -594 4 0 23
35 43 77 28 58 34 78 24 84 -7 4 -71 46 -143 92 -174 115 -757 492 -771 500
-6 4 -19 -23 -33 -69z"/>
<path d="M5246 4553 c-33 -156 -39 -251 -43 -760 l-5 -521 61 -41 c33 -23 66
-44 73 -46 10 -4 13 100 13 522 1 439 3 547 17 638 9 61 20 118 23 127 5 12
-8 26 -52 55 -84 57 -81 56 -87 26z"/>
<path d="M7025 4487 c-44 -23 -111 -64 -150 -92 -107 -77 -274 -252 -254 -268
2 -2 33 -23 68 -47 l64 -43 20 29 c36 52 211 219 277 264 36 25 96 61 134 81
l69 37 -70 41 c-38 22 -71 41 -74 41 -2 0 -40 -20 -84 -43z"/>
<path d="M5466 4398 c-20 -114 -26 -272 -26 -749 l0 -537 167 -108 c92 -60
293 -191 448 -292 l280 -182 6 597 c5 484 9 610 21 660 l15 62 -440 286 c-242
158 -446 289 -453 292 -7 2 -14 -9 -18 -29z"/>
<path d="M7278 4354 c-153 -74 -325 -208 -404 -315 -21 -28 -33 -54 -28 -59
17 -15 335 -220 342 -220 4 0 25 26 47 56 51 71 173 188 249 238 60 40 186 95
219 96 9 0 17 3 17 8 0 4 -83 57 -184 119 l-184 112 -74 -35z"/>
<path d="M7745 4059 c-312 -42 -662 -516 -642 -869 6 -111 33 -172 94 -211 60
-37 105 -43 190 -24 228 52 478 326 578 635 36 108 41 266 12 342 -16 41 -83
118 -105 118 -4 0 -23 4 -42 8 -19 4 -57 5 -85 1z m23 -292 c42 -130 -162
-475 -327 -553 -48 -23 -81 -21 -104 7 -59 74 52 331 212 489 76 75 121 101
171 98 31 -3 36 -7 48 -41z"/>
<path d="M6750 3839 c-16 -35 -30 -72 -30 -82 0 -12 52 -52 161 -123 89 -58
167 -107 173 -110 6 -2 27 31 47 74 l36 77 -166 109 c-91 60 -172 111 -178
113 -8 3 -25 -20 -43 -58z"/>
<path d="M6451 3740 c-7 -34 -11 -258 -11 -664 l0 -613 63 -41 62 -42 6 608
c4 406 10 620 17 647 6 22 12 47 12 55 0 12 -96 84 -131 98 -4 2 -12 -20 -18
-48z"/>
<path d="M6677 3588 c-4 -29 -7 -328 -7 -664 l0 -612 153 -99 152 -100 6 31
c4 17 10 283 13 591 4 308 10 578 15 600 5 22 11 51 15 65 6 23 -4 32 -155
130 -89 58 -167 106 -174 108 -8 2 -14 -16 -18 -50z"/>
<path d="M4800 3308 l1 -103 126 -80 c69 -44 138 -88 154 -98 l29 -19 0 104 0
105 -52 33 c-29 19 -97 62 -150 97 -53 35 -99 63 -102 63 -3 0 -6 -46 -6 -102z"/>
<path d="M4800 2510 l0 -580 24 -15 c19 -13 29 -14 45 -6 26 14 33 56 29 169
-2 51 0 92 3 92 4 0 49 -25 100 -55 52 -30 97 -55 102 -55 4 0 7 188 7 418 l0
419 -52 33 c-29 19 -97 62 -150 97 -53 35 -99 63 -102 63 -3 0 -6 -261 -6
-580z"/>
<path d="M5440 2896 l0 -104 123 -79 c423 -276 754 -491 765 -497 9 -6 12 16
12 96 l0 103 -333 216 c-182 119 -385 251 -449 293 l-118 76 0 -104z"/>
<path d="M5203 2413 c1 -230 6 -427 9 -438 4 -11 7 -82 7 -158 1 -137 1 -138
26 -149 21 -9 28 -8 45 7 18 16 20 31 20 137 0 109 2 119 18 114 16 -5 17 18
15 407 l-2 412 -63 42 c-35 23 -66 42 -71 42 -4 1 -6 -187 -4 -416z"/>
<path d="M5440 2271 l0 -410 95 -56 95 -56 0 -147 c0 -102 4 -152 12 -160 14
-14 64 -16 72 -3 3 5 6 63 7 130 0 67 3 121 6 121 3 0 77 -42 164 -92 l159
-93 0 -115 c0 -63 4 -120 8 -126 14 -20 41 -23 61 -6 17 14 21 31 23 104 l3
88 94 -55 c51 -30 95 -55 97 -55 2 0 4 170 4 378 l0 377 -103 66 c-56 37 -228
149 -382 249 -154 101 -310 203 -347 226 l-68 44 0 -409z"/>
<path d="M6670 2096 l0 -104 155 -100 155 -101 0 103 0 103 -42 29 c-24 15
-94 61 -155 101 l-113 73 0 -104z"/>
<path d="M6440 1656 c0 -239 4 -377 10 -381 6 -4 10 -55 10 -121 0 -64 5 -124
10 -135 11 -20 45 -25 69 -10 22 14 30 171 30 581 l1 355 -65 43 -65 42 0
-374z"/>
<path d="M6670 1512 l0 -367 103 -60 102 -60 3 -145 c1 -85 7 -149 14 -157 13
-17 52 -17 65 0 6 7 13 199 17 483 l6 471 -155 101 -155 101 0 -367z"/>
</g>
</svg>
