<?xml version="1.0" standalone="no"?>
<!DOCTYPE svg PUBLIC "-//W3C//DTD SVG 20010904//EN"
 "http://www.w3.org/TR/2001/REC-SVG-20010904/DTD/svg10.dtd">
<svg version="1.0" xmlns="http://www.w3.org/2000/svg"
 width="300.000000pt" height="300.000000pt" viewBox="0 0 300.000000 300.000000"
 preserveAspectRatio="xMidYMid meet">
<metadata>
Created by potrace 1.10, written by Peter Selinger 2001-2011
</metadata>
<g transform="translate(0.000000,300.000000) scale(0.100000,-0.100000)"
fill="#2D57A6" stroke="none">
<path d="M941 2832 c-45 -22 -90 -79 -93 -117 l-2 -30 -225 0 -226 0 -100 -37
c-113 -42 -145 -70 -145 -124 0 -54 24 -80 98 -108 141 -54 155 -56 382 -56
l215 0 -1 -41 -1 -40 -67 -3 c-73 -2 -105 -19 -143 -76 l-23 -33 0 -749 0
-748 -27 -11 c-49 -19 -144 -22 -204 -6 -88 24 -158 0 -198 -67 -27 -45 -33
-81 -21 -126 26 -96 110 -140 280 -148 58 -2 122 0 142 6 36 10 37 10 48 -24
15 -45 98 -118 152 -133 32 -9 226 -11 743 -9 698 3 700 3 741 25 52 28 97 79
118 134 15 40 16 128 14 956 -3 909 -3 912 -24 940 -35 47 -81 67 -151 68
l-63 0 0 43 0 42 98 0 c104 -1 145 -11 205 -53 73 -50 178 -48 268 6 170 102
155 349 -26 433 -63 30 -164 33 -212 6 -17 -9 -49 -27 -70 -39 -32 -17 -59
-22 -151 -25 l-112 -3 0 26 c0 61 -89 139 -160 139 -71 0 -160 -78 -160 -139
l0 -26 -89 0 c-49 0 -87 3 -85 6 8 14 -20 76 -50 107 -54 57 -132 66 -203 22
-33 -20 -73 -84 -73 -117 0 -16 -10 -18 -85 -18 -78 0 -85 2 -85 20 0 40 -44
99 -90 123 -53 27 -93 28 -139 4z m141 -44 c17 -11 41 -45 54 -73 12 -29 30
-55 39 -59 30 -11 151 -7 167 7 9 6 26 33 38 59 29 62 51 80 108 86 69 6 104
-15 138 -83 14 -31 35 -60 45 -65 28 -16 142 -12 166 5 12 8 27 31 33 50 6 18
27 48 46 65 28 24 43 30 83 30 39 0 54 -6 84 -31 20 -17 39 -44 42 -60 4 -16
18 -38 32 -49 22 -17 38 -19 123 -17 93 3 101 5 178 45 67 35 90 42 134 41 69
-1 109 -16 153 -58 49 -46 68 -86 71 -150 2 -41 -3 -66 -21 -100 -43 -85 -104
-121 -204 -121 -50 0 -72 6 -132 38 -68 35 -77 37 -179 40 -101 4 -109 2 -129
-19 -26 -28 -27 -69 -3 -98 13 -16 31 -22 76 -25 68 -5 102 -25 128 -77 17
-32 18 -96 18 -910 0 -975 2 -944 -66 -1012 -69 -68 -52 -67 -793 -67 -444 0
-679 4 -706 11 -55 15 -110 54 -136 98 -11 20 -28 40 -37 45 -9 5 -79 10 -157
10 -126 1 -145 4 -188 25 -91 45 -122 125 -77 199 33 54 77 66 185 52 108 -15
175 -7 213 25 l27 23 5 754 c3 414 7 753 8 754 1 1 10 11 21 22 24 29 82 52
127 52 49 0 74 23 74 70 0 66 -8 68 -255 72 -199 4 -227 6 -290 28 -69 23
-134 56 -136 68 -5 44 -3 58 15 78 12 13 60 36 109 53 88 31 90 31 298 31 116
0 218 4 228 10 10 5 30 33 44 62 14 29 39 61 54 70 40 25 108 23 145 -4z"/>
<path d="M962 2764 c-35 -15 -40 -55 -44 -353 l-3 -293 33 -29 c36 -33 60 -36
102 -14 45 23 51 63 50 359 -1 256 -2 266 -23 298 -19 27 -30 33 -62 35 -22 1
-46 -1 -53 -3z m89 -40 c18 -16 19 -37 19 -303 0 -317 -3 -331 -60 -331 -60 0
-60 2 -60 330 0 293 0 299 21 314 25 17 54 13 80 -10z"/>
<path d="M1463 2760 c-49 -20 -53 -48 -53 -345 0 -227 3 -281 15 -305 32 -62
98 -69 144 -13 l30 36 -5 281 c-3 164 -10 293 -16 309 -17 44 -62 58 -115 37z
m83 -32 c17 -18 17 -9 15 -325 -1 -312 -2 -317 -65 -311 -53 5 -56 23 -56 331
l0 278 24 24 c26 25 59 27 82 3z"/>
<path d="M1939 2741 l-29 -29 0 -295 0 -295 26 -31 c35 -42 84 -43 125 -1 l30
29 -3 302 -3 301 -28 24 c-39 33 -81 31 -118 -5z m104 -19 c15 -14 17 -41 17
-301 0 -243 -2 -290 -16 -309 -18 -26 -60 -29 -86 -5 -17 15 -18 38 -18 309 0
284 1 294 21 312 22 22 52 19 82 -6z"/>
<path d="M2474 2660 c-79 -40 -84 -41 -195 -45 -133 -3 -149 -13 -149 -94 0
-78 16 -87 158 -93 115 -5 122 -6 185 -42 104 -58 199 -49 260 23 52 62 58
139 16 208 -28 44 -79 74 -141 79 -47 5 -62 1 -134 -36z m192 -11 c32 -15 48
-32 64 -64 50 -102 -16 -202 -135 -206 -41 -2 -59 4 -100 30 -68 43 -103 51
-227 51 l-108 0 0 63 0 62 123 0 c130 1 128 0 251 72 31 19 84 16 132 -8z"/>
<path d="M405 2606 c-60 -15 -140 -50 -149 -65 -10 -16 4 -14 91 13 70 23 98
25 288 28 l210 3 0 -62 0 -63 -202 0 c-148 0 -214 4 -245 14 -100 33 -148 45
-148 35 0 -12 78 -48 145 -65 33 -9 115 -14 246 -14 232 0 229 -1 229 98 0 53
-3 63 -22 73 -33 18 -378 21 -443 5z"/>
<path d="M1190 2614 c-38 -16 -50 -37 -50 -91 0 -79 18 -93 118 -93 98 0 112
11 112 92 0 73 -18 89 -102 94 -35 2 -70 1 -78 -2z m150 -91 l0 -63 -85 0 -85
0 0 63 0 62 85 0 85 0 0 -62z"/>
<path d="M1662 2600 c-18 -17 -22 -32 -22 -79 0 -80 14 -91 112 -91 95 0 108
11 108 97 0 77 -10 86 -104 90 -62 3 -75 0 -94 -17z m178 -77 l0 -63 -87 0
-88 0 0 63 0 62 88 0 87 0 0 -62z"/>
<path d="M1156 2368 c-9 -12 -16 -34 -16 -48 0 -14 7 -36 16 -48 14 -20 24
-22 98 -22 68 0 86 3 99 18 21 23 22 71 1 100 -14 20 -24 22 -99 22 -75 0 -85
-2 -99 -22z m184 -50 l0 -43 -85 0 -85 0 0 43 0 42 85 0 85 0 0 -42z"/>
<path d="M1657 2372 c-22 -25 -22 -85 1 -105 15 -13 92 -23 154 -18 46 3 67
91 30 124 -28 25 -163 24 -185 -1z m181 -53 l-3 -41 -84 0 -84 0 -1 41 -1 41
88 0 88 0 -3 -41z"/>
<path d="M764 2202 c-18 -2 -42 -14 -55 -28 -23 -24 -24 -33 -27 -179 -2 -98
1 -161 8 -174 10 -19 19 -20 143 -19 160 2 176 -1 302 -60 132 -62 186 -63
294 -8 187 95 383 96 568 1 37 -19 86 -37 109 -41 55 -8 139 17 181 53 l33 28
0 135 c2 248 2 238 -25 265 -19 19 -35 25 -70 25 -65 0 -81 -12 -99 -75 -21
-71 -63 -105 -129 -105 -38 0 -51 6 -80 33 -21 19 -40 50 -46 74 -18 65 -31
73 -120 73 -89 0 -100 -7 -120 -77 -34 -121 -191 -140 -242 -30 -10 23 -19 49
-19 58 0 35 -33 49 -118 49 -72 0 -83 -2 -96 -22 -9 -12 -16 -31 -16 -40 0
-35 -47 -95 -88 -111 -77 -31 -145 12 -177 111 -9 28 -17 52 -18 52 -1 0 -16
3 -32 8 -17 4 -44 6 -61 4z m81 -42 c-3 -5 -1 -27 5 -49 39 -146 225 -172 298
-43 12 22 22 55 22 73 l0 34 85 0 85 0 0 -33 c0 -68 68 -145 138 -157 44 -7
102 12 139 47 27 25 58 101 50 123 -6 13 7 15 83 15 l90 0 0 -39 c0 -78 74
-145 161 -145 86 0 159 72 159 156 l0 33 55 -3 c83 -6 85 -12 85 -217 l0 -170
-52 -29 c-80 -45 -140 -42 -249 12 -193 96 -374 95 -576 -2 -118 -57 -151 -56
-283 8 -55 26 -120 50 -155 55 -65 10 -204 8 -247 -4 l-28 -7 0 159 c0 112 4
164 13 176 7 10 30 17 62 19 56 3 68 1 60 -12z"/>
<path d="M1660 1760 c-85 -7 -137 -24 -240 -76 -46 -23 -67 -27 -130 -27 -68
1 -84 5 -175 49 l-100 49 -142 0 c-137 0 -142 -1 -168 -25 -26 -25 -27 -27
-23 -132 4 -141 9 -147 104 -123 90 22 140 15 248 -35 182 -86 330 -87 511 -2
90 42 107 47 170 46 61 0 82 -6 155 -41 101 -48 105 -50 195 -62 80 -12 196 1
232 24 22 15 23 22 23 134 0 145 -4 152 -83 131 -94 -25 -162 -18 -258 28 -65
32 -221 79 -232 71 -1 -1 -40 -5 -87 -9z m205 -46 c11 -3 58 -24 105 -47 78
-39 91 -42 165 -42 62 0 90 5 123 21 l42 21 0 -118 c0 -65 -3 -120 -8 -123
-15 -9 -98 -18 -162 -18 -91 1 -148 16 -253 67 -81 41 -97 45 -162 45 -63 0
-81 -5 -156 -41 -111 -55 -167 -69 -270 -69 -101 0 -169 18 -259 68 -56 31
-76 36 -145 40 -70 3 -86 0 -127 -21 l-48 -24 0 122 0 123 28 5 c15 3 81 5
147 4 l120 -2 100 -49 c83 -40 112 -49 172 -54 68 -4 76 -3 170 41 132 60 126
59 223 66 77 6 139 1 195 -15z"/>
<path d="M775 1425 c-90 -37 -95 -46 -95 -184 0 -165 -4 -161 158 -156 146 4
192 -5 309 -62 53 -26 94 -38 134 -41 52 -4 68 0 156 41 108 49 122 54 225 67
95 12 207 -10 317 -61 133 -62 210 -64 295 -8 l46 31 0 132 c0 161 -4 169 -90
158 -141 -19 -239 -2 -372 62 -46 23 -97 39 -131 43 -51 5 -63 2 -155 -41
-116 -54 -211 -76 -302 -71 -91 5 -153 21 -224 56 -74 37 -140 59 -181 59 -16
0 -57 -12 -90 -25z m213 -45 c123 -59 182 -74 297 -74 122 -1 184 14 296 70
112 55 158 55 274 -4 44 -22 100 -46 125 -53 55 -16 255 -16 293 -1 l27 12 0
-133 0 -132 -59 -27 c-87 -42 -135 -38 -244 16 -107 54 -159 66 -285 66 -117
0 -185 -16 -292 -70 -102 -51 -153 -53 -236 -9 -111 58 -196 80 -308 80 -55 1
-114 -4 -129 -10 -16 -6 -30 -11 -33 -11 -2 0 -4 60 -4 133 l0 132 63 27 c85
37 118 35 215 -12z"/>
<path d="M750 1039 c-61 -17 -70 -38 -70 -154 0 -84 3 -107 18 -125 18 -22 18
-22 76 -5 86 25 163 17 259 -29 104 -49 183 -66 282 -62 105 5 122 10 238 63
95 44 101 45 175 41 63 -4 90 -11 147 -41 39 -19 88 -40 110 -46 103 -29 277
-21 316 15 16 15 19 32 19 129 0 78 -4 117 -14 130 -13 18 -15 18 -71 1 -80
-26 -172 -18 -245 21 -102 54 -149 67 -250 69 -125 4 -174 -7 -293 -62 -95
-45 -101 -46 -170 -42 -53 4 -85 12 -122 33 -95 52 -153 67 -265 70 -58 2
-121 -1 -140 -6z m230 -29 c25 -6 89 -31 142 -56 89 -42 103 -46 171 -45 67 1
84 5 168 46 186 89 336 87 518 -6 74 -38 87 -41 156 -40 54 0 87 6 117 21 23
11 43 20 45 20 2 0 2 -53 1 -117 l-3 -118 -75 -14 c-110 -21 -206 -5 -334 56
-92 45 -105 48 -175 47 -68 0 -84 -4 -151 -38 -101 -52 -143 -66 -221 -72
-100 -9 -190 10 -299 64 -88 43 -101 47 -170 47 -58 0 -85 -6 -117 -23 l-43
-22 0 119 0 120 43 9 c57 13 172 14 227 2z"/>
<path d="M796 723 c-25 -7 -61 -28 -80 -47 l-36 -33 0 -135 c0 -142 9 -188 44
-226 48 -54 21 -53 783 -52 794 0 745 -4 790 76 20 35 23 53 23 171 0 95 -4
134 -12 140 -7 4 -78 8 -158 9 -148 1 -204 13 -273 57 -44 27 -107 47 -161 48
-44 2 -68 -5 -133 -35 -107 -52 -154 -65 -253 -72 -110 -8 -205 12 -313 66
-92 45 -150 53 -221 33z m208 -63 c104 -51 180 -70 283 -70 111 0 171 14 282
66 128 60 166 60 293 -1 51 -25 120 -50 153 -56 61 -11 235 -7 268 6 17 7 18
-1 17 -116 -2 -103 -5 -130 -22 -160 -41 -73 4 -69 -775 -69 -675 0 -699 1
-730 20 -55 33 -63 62 -63 222 l0 144 53 27 c79 41 139 37 241 -13z"/>
<path d="M284 581 c-27 -12 -54 -54 -54 -85 0 -38 43 -81 97 -97 29 -8 92 -14
156 -13 97 0 110 2 130 22 18 18 22 34 22 82 0 84 -14 96 -95 83 -34 -5 -81
-6 -108 -2 -95 16 -127 19 -148 10z m136 -40 c53 -8 137 -2 173 14 15 6 17 0
17 -63 l0 -70 -74 -7 c-159 -15 -276 20 -276 83 0 41 29 65 70 58 19 -3 60
-10 90 -15z"/>
</g>
</svg>
