<svg xmlns="http://www.w3.org/2000/svg" viewBox="0 0 128 128" id="fabric" fill="#2D57A6">
  <path d="M95.62042 118.58771a10.69712 10.69712 0 0 1-4.46918-1.23285 6.54053 6.54053 0 0 0 .19714 1.17883 12.65967 12.65967 0 0 0 2.02051 4.06738 8.57721 8.57721 0 0 1 .60742.96191 2.28746 2.28746 0 0 1-.27637.33887v.00049c-.01953.02-.03711.0376-.05273.05225A8.83356 8.83356 0 0 1 92.532 123.269a8.25832 8.25832 0 0 0-4.67383-1.8042 7.09963 7.09963 0 0 0-4.35156 1.41455 3.43274 3.43274 0 0 1-4.26855 0 7.4006 7.4006 0 0 0-8.70312 0 3.43082 3.43082 0 0 1-4.2666.00049 7.39356 7.39356 0 0 0-8.69922-.00049 3.43274 3.43274 0 0 1-4.26855 0 7.40163 7.40163 0 0 0-8.70312-.00049 3.43466 3.43466 0 0 1-4.27051.00049 7.40163 7.40163 0 0 0-8.70313-.00049 3.43606 3.43606 0 0 1-4.27148.00049 7.40314 7.40314 0 0 0-8.7041-.00049 3.20071 3.20071 0 0 1-2.1377.74463 3.20413 3.20413 0 0 1-2.13965-.74463 7.114 7.114 0 0 0-4.35547-1.41406 8.25869 8.25869 0 0 0-4.67578 1.80469 8.8586 8.8586 0 0 1-1.11914.687c-.0166-.01514-.03516-.03369-.05664-.05518a1.46664 1.46664 0 0 1-.14746-.17871 7.09446 7.09446 0 0 1 .7334-1.19287A8.22471 8.22471 0 0 0 6.61987 117.752a7.45626 7.45626 0 0 0-1.4209-4.4834 3.81295 3.81295 0 0 1 0-4.61719 7.45282 7.45282 0 0 0 1.4209-4.48242 7.455 7.455 0 0 0-1.4209-4.4834 3.8086 3.8086 0 0 1 0-4.61426 7.44766 7.44766 0 0 0 1.4209-4.481A7.45282 7.45282 0 0 0 5.199 86.10791a3.81222 3.81222 0 0 1 0-4.6167 7.455 7.455 0 0 0 1.4209-4.4834A7.45329 7.45329 0 0 0 5.199 72.5249a3.81584 3.81584 0 0 1 0-4.61914 7.45329 7.45329 0 0 0 1.4209-4.48291A7.45845 7.45845 0 0 0 5.199 58.93848a3.81439 3.81439 0 0 1 0-4.61816 7.45454 7.45454 0 0 0 1.4209-4.48291A7.45893 7.45893 0 0 0 5.199 45.35254 3.82481 3.82481 0 0 1 5.2 40.72607a7.473 7.473 0 0 0 1.41992-4.48682A8.23143 8.23143 0 0 0 4.74976 31.4585a7.00294 7.00294 0 0 1-.73437-1.1958 1.26393 1.26393 0 0 1 .14941-.18213q.0293-.03076.05273-.05273a8.85069 8.85069 0 0 1 1.11621.68555 8.25832 8.25832 0 0 0 4.67383 1.8042 7.61165 7.61165 0 0 0 1.628-.17017 12.135 12.135 0 0 1-.05847-4.21637 2.82274 2.82274 0 0 1-1.56952.38654 4.86309 4.86309 0 0 1-2.42969-1.11523C6.22241 26.4834 3.699 24.7749 1.27026 27.31982c-2.47266 2.59277-.73535 5.08594.19727 6.42529a4.788 4.788 0 0 1 1.15234 2.49414 3.55363 3.55363 0 0 1-.7793 2.31494 7.79287 7.79287 0 0 0 .001 8.97119 3.55214 3.55214 0 0 1 .77832 2.312 3.54211 3.54211 0 0 1-.77832 2.30811 7.78374 7.78374 0 0 0 0 8.9668 3.548 3.548 0 0 1 .77832 2.31055 3.54485 3.54485 0 0 1-.77832 2.30908 7.78374 7.78374 0 0 0 0 8.9668 3.54485 3.54485 0 0 1 .77832 2.30908 3.54622 3.54622 0 0 1-.77832 2.30957 7.78143 7.78143 0 0 0 0 8.96533 3.54073 3.54073 0 0 1 .77832 2.30762 3.53579 3.53579 0 0 1-.77832 2.30518 7.77912 7.77912 0 0 0 0 8.96387 3.54622 3.54622 0 0 1 .77832 2.30957 3.54211 3.54211 0 0 1-.77832 2.30811 7.783 7.783 0 0 0 0 8.96631 3.54252 3.54252 0 0 1 .77832 2.30859 4.78909 4.78909 0 0 1-1.15137 2.49072c-.93359 1.33984-2.6709 3.833-.19531 6.42285A3.80169 3.80169 0 0 0 4.075 128a6.55612 6.55612 0 0 0 3.50879-1.41992 4.87289 4.87289 0 0 1 2.43164-1.11523A3.20274 3.20274 0 0 1 12.156 126.21a7.11331 7.11331 0 0 0 4.35449 1.41357 7.10879 7.10879 0 0 0 4.35254-1.41406 3.43746 3.43746 0 0 1 4.27246-.00049 7.4006 7.4006 0 0 0 8.70313 0 3.43694 3.43694 0 0 1 4.27148 0 7.4021 7.4021 0 0 0 8.7041 0 3.43414 3.43414 0 0 1 4.26953 0 7.3991 7.3991 0 0 0 8.70215 0 3.42942 3.42942 0 0 1 4.26563-.00049 7.39506 7.39506 0 0 0 8.7002.00049 3.43414 3.43414 0 0 1 4.26953 0 7.3991 7.3991 0 0 0 8.70215 0 3.19256 3.19256 0 0 1 2.13477-.74414 4.864 4.864 0 0 1 2.42871 1.11523c1.35645.91846 3.88086 2.62939 6.30762.082 2.56934-2.69336 1.00488-4.96826.07031-6.32764A12.0421 12.0421 0 0 1 95.62042 118.58771zM126.66626 94.35187a8.80527 8.80527 0 0 1-1.45117-2.8335c-.22949-.85889-.03809-1.12988.5957-2.02881a7.30206 7.30206 0 0 0 1.63477-4.53076 7.459 7.459 0 0 0-1.41992-4.48437 3.818 3.818 0 0 1 0-4.62061 7.78658 7.78658 0 0 0 0-8.96582 3.81729 3.81729 0 0 1 0-4.62012 7.78812 7.78812 0 0 0 0-8.9668 3.81512 3.81512 0 0 1 0-4.61865 7.785 7.785 0 0 0 0-8.96484 3.80978 3.80978 0 0 1-.001-4.61377 7.78054 7.78054 0 0 0 .001-8.96338 3.81439 3.81439 0 0 1 0-4.61816 7.46044 7.46044 0 0 0 1.41992-4.48291 7.46 7.46 0 0 0-1.41992-4.48242 3.54389 3.54389 0 0 1-.77832-2.30908 4.78909 4.78909 0 0 1 1.15137-2.49072c.93359-1.33984 2.6709-3.8335.19434-6.42285-2.43359-2.54346-4.95508-.8335-6.30957.085A4.87261 4.87261 0 0 1 117.85083 2.535a3.20412 3.20412 0 0 1-2.13965-.74463 7.41018 7.41018 0 0 0-8.708 0 3.19889 3.19889 0 0 1-2.1377.74463 3.19 3.19 0 0 1-2.13379-.74414 7.40314 7.40314 0 0 0-8.7041-.00049 3.19118 3.19118 0 0 1-2.13574.74463 3.19256 3.19256 0 0 1-2.13477-.74414 7.4021 7.4021 0 0 0-8.7041 0 3.19256 3.19256 0 0 1-2.13477.74414 3.19256 3.19256 0 0 1-2.13477-.74414 7.3991 7.3991 0 0 0-8.70215 0 3.19 3.19 0 0 1-2.13379.74414 3.19053 3.19053 0 0 1-2.13184-.74365 7.39656 7.39656 0 0 0-8.70117-.00049 3.19256 3.19256 0 0 1-2.13477.74414 3.19 3.19 0 0 1-2.13379-.74414 7.4006 7.4006 0 0 0-8.70312 0A3.19 3.19 0 0 1 40.009 2.535a4.86309 4.86309 0 0 1-2.42969-1.11523c-1.35547-.91895-3.87988-2.62744-6.30762-.08252C28.79907 3.93 30.53638 6.42316 31.469 7.76251a7.47378 7.47378 0 0 1 1.02148 1.787 10.80585 10.80585 0 0 1 4.08417 1.593 8.6595 8.6595 0 0 0 .04669-.88593 8.23143 8.23143 0 0 0-1.87012-4.78076 7.00294 7.00294 0 0 1-.73437-1.1958 1.26393 1.26393 0 0 1 .14941-.18213q.0293-.03076.05273-.05273a8.85069 8.85069 0 0 1 1.11621.68555A8.25832 8.25832 0 0 0 40.009 6.535a7.09871 7.09871 0 0 0 4.35059-1.41455 3.43414 3.43414 0 0 1 4.26953 0A7.09871 7.09871 0 0 0 52.97974 6.535 7.10544 7.10544 0 0 0 57.3313 5.12091a3.43134 3.43134 0 0 1 4.26758-.001 7.08934 7.08934 0 0 0 4.34863 1.415A7.0994 7.0994 0 0 0 70.2981 5.12042a3.43186 3.43186 0 0 1 4.26855.00049A7.10544 7.10544 0 0 0 78.91821 6.535a7.10207 7.10207 0 0 0 4.35156-1.41455 3.43466 3.43466 0 0 1 4.27051.00049A7.10544 7.10544 0 0 0 91.89185 6.535a7.10879 7.10879 0 0 0 4.35254-1.41406 3.43466 3.43466 0 0 1 4.27051-.00049A7.09871 7.09871 0 0 0 104.86548 6.535 7.10636 7.10636 0 0 0 109.218 5.12091a3.4441 3.4441 0 0 1 4.27832.00049A7.11331 7.11331 0 0 0 117.85083 6.535a8.25907 8.25907 0 0 0 4.67676-1.80469 8.84644 8.84644 0 0 1 1.11914-.687c.01563.01563.03516.03369.05566.05566a1.26768 1.26768 0 0 1 .14746.17871 7.09446 7.09446 0 0 1-.7334 1.19287 8.22275 8.22275 0 0 0-1.86914 4.77734 7.46044 7.46044 0 0 0 1.41992 4.48291 3.54348 3.54348 0 0 1 .77832 2.30859 3.54389 3.54389 0 0 1-.77832 2.30908 7.78658 7.78658 0 0 0 0 8.96582 3.81123 3.81123 0 0 1 .001 4.61475 7.77681 7.77681 0 0 0 0 8.9624 3.81485 3.81485 0 0 1-.001 4.61719 7.78735 7.78735 0 0 0 0 8.96631 3.81584 3.81584 0 0 1 0 4.61914 7.78812 7.78812 0 0 0 0 8.9668 3.81584 3.81584 0 0 1 0 4.61914 7.78889 7.78889 0 0 0 0 8.96729 3.54981 3.54981 0 0 1 .77832 2.31152 3.48142 3.48142 0 0 1-.9043 2.2251 5.7829 5.7829 0 0 0-1.19141 5.36719 12.65967 12.65967 0 0 0 2.02051 4.06738 8.57721 8.57721 0 0 1 .60742.96191 2.28746 2.28746 0 0 1-.27637.33887v.00049c-.01953.02-.03711.0376-.05273.05225a8.83356 8.83356 0 0 1-1.11523-.68555 8.25832 8.25832 0 0 0-4.67383-1.8042 7.07234 7.07234 0 0 0-2.58765.45313 12.12767 12.12767 0 0 1 .17358 2.02344 10.79134 10.79134 0 0 1-.33093 2.65778c.22-.1333.42462-.26654.61023-.3902a3.19256 3.19256 0 0 1 2.13477-.74414 4.864 4.864 0 0 1 2.42871 1.11523c1.35547.91895 3.87988 2.62988 6.30762.082C129.16528 97.98615 127.60083 95.71124 126.66626 94.35187z"></path>
  <path d="M110.215,103.50275c-.22949-.8587-.03809-1.1297.5957-2.02844a7.3,7.3,0,0,0,1.63483-4.53,7.45662,7.45662,0,0,0-1.42-4.48364,3.81684,3.81684,0,0,1,0-4.61981,7.7838,7.7838,0,0,0,0-8.96423,3.81612,3.81612,0,0,1,0-4.61932,7.78544,7.78544,0,0,0,0-8.96527,3.81394,3.81394,0,0,1,0-4.61786,7.78235,7.78235,0,0,0,0-8.96332,3.80861,3.80861,0,0,1-.001-4.613,7.77786,7.77786,0,0,0,.001-8.96185,3.81322,3.81322,0,0,1,0-4.61737,7.783,7.783,0,0,0,0-8.96375,3.543,3.543,0,0,1-.77832-2.30872,4.7879,4.7879,0,0,1,1.15137-2.4903c.93365-1.3396,2.671-3.83282.19434-6.42175-2.43262-2.543-4.95514-.83386-6.30963.085a4.87318,4.87318,0,0,1-2.43268,1.11554,3.20436,3.20436,0,0,1-2.13965-.74451,7.41141,7.41141,0,0,0-8.70813,0,3.43659,3.43659,0,0,1-4.27155.00049,7.40445,7.40445,0,0,0-8.70428-.00049,3.43519,3.43519,0,0,1-4.27057.00049,7.40332,7.40332,0,0,0-8.70422,0,3.43467,3.43467,0,0,1-4.26959,0,7.40032,7.40032,0,0,0-8.70227,0,3.43,3.43,0,0,1-4.26569.00049,7.39778,7.39778,0,0,0-8.70129-.00049,3.43327,3.43327,0,0,1-4.26862,0,7.40182,7.40182,0,0,0-8.70325,0,3.19045,3.19045,0,0,1-2.13385.744,4.86411,4.86411,0,0,1-2.42975-1.11505c-1.35547-.91882-3.87891-2.627-6.30768-.08252-2.47272,2.59235-.73535,5.08508.19727,6.42419A4.78678,4.78678,0,0,1,17.61987,22.255a3.55272,3.55272,0,0,1-.7793,2.31458,7.79036,7.79036,0,0,0,.001,8.9696,3.81611,3.81611,0,0,1,0,4.61932,7.78133,7.78133,0,0,0,0,8.96527,3.81539,3.81539,0,0,1,0,4.61884,7.78133,7.78133,0,0,0,0,8.96527,3.81394,3.81394,0,0,1,0,4.61786,7.779,7.779,0,0,0,0,8.96381,3.80526,3.80526,0,0,1,0,4.612,7.77662,7.77662,0,0,0,0,8.96228,3.81249,3.81249,0,0,1,0,4.61688,7.78056,7.78056,0,0,0,0,8.96478,3.54161,3.54161,0,0,1,.77832,2.30823,4.78811,4.78811,0,0,1-1.15137,2.4903c-.93359,1.3396-2.671,3.83234-.19531,6.42175A3.802,3.802,0,0,0,19.075,114a6.55692,6.55692,0,0,0,3.50879-1.41968,4.87338,4.87338,0,0,1,2.4317-1.11505,3.20325,3.20325,0,0,1,2.14069.745,7.41094,7.41094,0,0,0,8.70715-.00049,3.438,3.438,0,0,1,4.27252-.00049,7.40182,7.40182,0,0,0,8.70325,0,3.43747,3.43747,0,0,1,4.27155,0,7.40332,7.40332,0,0,0,8.70422,0,3.43467,3.43467,0,0,1,4.26959,0,7.40032,7.40032,0,0,0,8.70227,0,3.43,3.43,0,0,1,4.26569-.00049,7.39638,7.39638,0,0,0,8.70038.00049,3.43467,3.43467,0,0,1,4.26959,0,7.40032,7.40032,0,0,0,8.70227,0,3.19279,3.19279,0,0,1,2.13477-.744,4.864,4.864,0,0,1,2.42877,1.11505c1.35645.91827,3.87994,2.62891,6.30768.082,2.5694-2.69293,1.00494-4.96747.07037-6.3266A8.80139,8.80139,0,0,1,110.215,103.50275Zm-81.21216,5.136a6.89438,6.89438,0,0,0-3.98737-1.17279,8.25963,8.25963,0,0,0-4.67584,1.80438,8.86353,8.86353,0,0,1-1.11914.68689c-.0166-.01514-.03516-.03369-.05664-.05518a1.46266,1.46266,0,0,1-.14746-.17865,7.09388,7.09388,0,0,1,.7334-1.19269,8.22247,8.22247,0,0,0,1.87012-4.777,7.4543,7.4543,0,0,0-1.4209-4.48267c-.06268-.0968-.12189-.18835-.178-.27728h8.98181Zm0-13.64429H19.98309c.06744-.10864.13824-.21979.21594-.33978a7.45064,7.45064,0,0,0,1.4209-4.48163,7.2515,7.2515,0,0,0-1.22534-4.177h8.60828Zm0-12.99774H19.67175a6.33415,6.33415,0,0,1,.52728-.9198,7.77585,7.77585,0,0,0,0-8.96179c-.02637-.04065-.0498-.07764-.075-.1167h8.87885Zm0-13.99762H19.8858c.09271-.15839.19708-.32043.31323-.49988a7.78056,7.78056,0,0,0,0-8.96478c-.12433-.19214-.23547-.36456-.33289-.53363h9.13672Zm0-13.99756h-8.8587l.05487-.08545a7.78211,7.78211,0,0,0,0-8.96576,6.14668,6.14668,0,0,1-.53857-.94708h9.34241Zm0-13.99762H20.40948a7.242,7.242,0,0,0,1.21045-4.15308A7.457,7.457,0,0,0,20.199,31.3667a4.39715,4.39715,0,0,1-.67029-1.33765h9.47412Zm0-13.97418H20.63953a7.176,7.176,0,0,0,.98041-3.77472,8.22938,8.22938,0,0,0-1.87012-4.78,6.99982,6.99982,0,0,1-.73437-1.19556,1.26393,1.26393,0,0,1,.14941-.18213q.0293-.03076.05273-.05267a8.84137,8.84137,0,0,1,1.11621.68542A8.25969,8.25969,0,0,0,25.00769,18.534a6.88677,6.88677,0,0,0,3.99518-1.1806Zm13.00018,82.62061a6.88764,6.88764,0,0,0-4.001-1.18439,7.11083,7.11083,0,0,0-4.35358,1.41382c-.23932.15918-.44287.29218-.64551.40222V98.99377h9.00012Zm0-13.65588H33.00293V85.996h9.00012Zm0-12.99774H33.00293V71.99841h9.00012Zm0-13.99762H33.00293V58.00079h9.00012Zm0-13.99756H33.00293V44.00323h9.00012Zm0-13.99762H33.00293V30.02905h9.00012Zm0-13.97418H33.00293V16.72852c.19592.10791.39368.23712.625.39111A7.0994,7.0994,0,0,0,37.97858,18.534a6.89774,6.89774,0,0,0,4.02448-1.199Zm13.00018,82.63751a6.89586,6.89586,0,0,0-4.02734-1.20129,7.10432,7.10432,0,0,0-4.35168,1.41382c-.22986.15289-.42651.28119-.62109.38873V98.99377h9.00012Zm0-13.67279H46.00311V85.996h9.00012Zm0-12.99774H46.00311V71.99841h9.00012Zm0-13.99762H46.00311V58.00079h9.00012Zm0-13.99756H46.00311V44.00323h9.00012Zm0-13.99762H46.00311V30.02905h9.00012Zm0-13.97418H46.00311V16.745c.186.10468.37512.22809.59473.37415A7.09018,7.09018,0,0,0,50.94653,18.534a6.90317,6.90317,0,0,0,4.0567-1.22107Zm13.00024,82.65479a6.90454,6.90454,0,0,0-4.05377-1.21857,7.1064,7.1064,0,0,0-4.35162,1.41382c-.21948.14618-.40857.26965-.59479.37445V98.99377h9.00018Zm0-13.69006H59.0033V85.996h9.00018Zm0-12.99774H59.0033V71.99841h9.00018Zm0-13.99762H59.0033V58.00079h9.00018Zm0-13.99756H59.0033V44.00323h9.00018Zm0-13.99762H59.0033V30.02905h9.00018Zm0-13.97418H59.0033V16.76355c.1759.10107.35577.21887.56256.35657A7.106,7.106,0,0,0,63.91748,18.534a6.91661,6.91661,0,0,0,4.086-1.23981Zm13.00018,82.67615a6.90451,6.90451,0,0,0-4.08307-1.23993,7.09967,7.09967,0,0,0-4.35065,1.41431c-.20844.13879-.3894.25714-.56641.3587V98.99377h9.00012Zm0-13.71143H72.00354V85.996h9.00012Zm0-12.99774H72.00354V71.99841h9.00012Zm0-13.99762H72.00354V58.00079h9.00012Zm0-13.99756H72.00354V44.00323h9.00012Zm0-13.99762H72.00354V30.02905h9.00012Zm0-13.97418H72.00354V16.77826c.16754.09784.33966.21106.53613.34186A7.106,7.106,0,0,0,76.8913,18.534a6.93416,6.93416,0,0,0,4.11237-1.2561Zm13.00018,82.69592a6.9297,6.9297,0,0,0-4.11627-1.2597,7.10318,7.10318,0,0,0-4.35162,1.41431c-.19495.12982-.36591.24231-.53223.3396V98.99377h9.00012Zm0-13.7312H85.00372V85.996h9.00012Zm0-12.99774H85.00372V71.99841h9.00012Zm0-13.99762H85.00372V58.00079h9.00012Zm0-13.99756H85.00372V44.00323h9.00012Zm0-13.99762H85.00372V30.02905h9.00012Zm0-13.97418H85.00372V16.79193c.15955.09448.32422.20355.51074.3277A7.0994,7.0994,0,0,0,89.86511,18.534a6.94593,6.94593,0,0,0,4.13873-1.27332Zm4.00006-9.22589c.15375.09192.31293.19763.49219.31677a7.114,7.114,0,0,0,4.35455,1.41339,8.26026,8.26026,0,0,0,4.67682-1.80438,8.84177,8.84177,0,0,1,1.1192-.68689c.01563.01556.03516.03363.05566.0556a1.26769,1.26769,0,0,1,.14746.17871,7.09125,7.09125,0,0,1-.7334,1.19263,8.22032,8.22032,0,0,0-1.8692,4.77655,7.1633,7.1633,0,0,0,.98749,3.78351H98.00391Zm0,13.22522h10.32922a4.43881,4.43881,0,0,1-.666,1.31616,7.45756,7.45756,0,0,0-1.42,4.48169,7.25743,7.25743,0,0,0,1.22473,4.177h-9.468Zm0,13.97418h10.19092a6.34336,6.34336,0,0,1-.52667.92023,7.77413,7.77413,0,0,0,0,8.96088l.0752.11719H98.00391Zm0,13.99756h9.97662c-.09277.15851-.19714.3205-.31335.49994a7.78467,7.78467,0,0,0,0,8.96478c.12439.192.2356.36456.333.53357H98.00391Zm0,13.99762H107.722l-.05487.08545a7.78544,7.78544,0,0,0,0,8.96527,6.152,6.152,0,0,1,.53876.94757h-10.202Zm0,13.99762h9.45325a7.2471,7.2471,0,0,0-1.21,4.15308,7.45813,7.45813,0,0,0,1.42,4.48407c.08282.128.15771.24591.22882.36127H98.00391Zm10.69745,23.90649v.00049c-.01953.02-.03711.0376-.05273.05225a8.84317,8.84317,0,0,1-1.1153-.68542,8.25908,8.25908,0,0,0-4.67389-1.80389,7.10074,7.10074,0,0,0-4.35162,1.41431c-.1839.12244-.34656.23047-.50391.324V98.99377h9.65771c-.04163.05951-.07623.11273-.12048.17529a5.78106,5.78106,0,0,0-1.19141,5.36621,12.65642,12.65642,0,0,0,2.02057,4.06671,8.577,8.577,0,0,1,.60742.96173A2.28478,2.28478,0,0,1,108.70136,109.90253Z"></path>
</svg>
