<?xml version="1.0" standalone="no"?>
<!DOCTYPE svg PUBLIC "-//W3C//DTD SVG 20010904//EN"
 "http://www.w3.org/TR/2001/REC-SVG-20010904/DTD/svg10.dtd">
<svg version="1.0" xmlns="http://www.w3.org/2000/svg"
 width="512.000000pt" height="512.000000pt" viewBox="0 0 512.000000 512.000000"
 preserveAspectRatio="xMidYMid meet">
<metadata>
Created by potrace 1.16, written by Peter Selinger 2001-2019
</metadata>
<g transform="translate(0.000000,512.000000) scale(0.100000,-0.100000)"
fill="#2D57A6" stroke="none">
<path d="M4753 4899 c-86 -11 -126 -42 -302 -234 -91 -99 -236 -251 -321 -339
l-157 -159 -47 36 c-81 62 -113 67 -445 67 -267 0 -300 -2 -337 -19 -54 -25
-78 -57 -104 -144 -32 -107 -77 -184 -150 -257 -108 -108 -259 -170 -416 -170
-100 0 -165 15 -259 60 -148 72 -245 185 -306 358 -37 107 -68 146 -132 163
-31 8 -128 9 -357 3 -311 -9 -315 -9 -355 -34 -66 -41 -1002 -1002 -1025
-1052 -30 -67 -27 -161 8 -220 36 -63 482 -490 542 -520 57 -28 148 -30 202
-4 20 9 80 58 133 107 53 50 102 88 108 86 15 -4 24 -498 29 -1542 4 -700 4
-711 25 -750 24 -46 54 -75 103 -101 34 -18 80 -19 1290 -16 l1255 4 45 26
c30 19 52 43 71 78 l26 50 7 1118 c4 615 10 1124 13 1132 10 27 32 14 129 -77
116 -107 138 -120 219 -126 52 -4 67 -1 112 24 67 37 524 470 549 521 27 54
25 164 -3 217 -12 22 -141 164 -286 315 l-265 275 92 85 c50 47 202 193 339
325 265 256 290 288 303 391 13 102 -50 233 -137 287 -53 32 -123 45 -196 36z
m115 -98 c98 -51 139 -160 92 -250 -14 -28 -92 -99 -276 -251 -272 -226 -382
-321 -537 -463 l-96 -88 -34 38 c-19 21 -49 55 -66 75 l-33 37 105 133 c247
313 623 740 676 768 47 25 121 25 169 1z m-3124 -763 c68 -246 271 -444 526
-514 91 -26 319 -26 410 0 249 68 449 261 525 507 l18 56 273 7 c285 7 307 5
342 -37 17 -20 -38 -72 -67 -62 -33 10 -101 -14 -148 -53 -58 -48 -351 -366
-364 -395 -8 -18 -24 -26 -68 -35 -265 -55 -441 -329 -441 -687 0 -94 14 -203
27 -216 27 -24 52 -18 102 25 76 64 115 72 281 57 154 -13 203 -7 282 36 104
57 195 194 205 311 5 56 7 60 39 71 20 7 61 43 101 87 37 41 128 129 201 196
114 105 134 128 143 164 8 30 22 51 50 74 22 17 44 30 49 28 21 -7 542 -522
556 -550 9 -17 13 -41 9 -57 -8 -37 -479 -507 -517 -516 -47 -12 -69 1 -185
104 -61 54 -124 102 -139 105 -59 15 -132 -20 -154 -75 -11 -25 -12 -163 -7
-691 l6 -661 -32 30 c-120 111 -249 173 -264 126 -10 -30 146 -164 250 -214
l47 -23 0 -118 0 -117 -72 72 c-113 113 -274 227 -298 212 -6 -3 -10 -16 -10
-28 0 -30 218 -240 307 -297 l72 -45 0 -130 c1 -71 -3 -125 -7 -120 -4 6 -34
43 -66 82 -96 120 -342 333 -383 333 -39 0 -27 -35 36 -107 123 -143 377 -373
411 -373 15 0 10 -214 -5 -229 -6 -6 -44 30 -105 101 -152 176 -402 408 -440
408 -39 0 -22 -43 52 -130 97 -115 272 -293 363 -371 51 -43 71 -66 62 -71 -6
-4 -61 -8 -122 -8 l-110 1 -54 82 c-57 85 -322 359 -374 386 -41 22 -57 1 -33
-42 39 -67 133 -176 259 -300 l130 -127 -84 0 c-46 0 -100 -3 -120 -6 -33 -6
-37 -4 -49 27 -34 80 -297 359 -340 359 -63 0 28 -139 202 -310 l82 -80 -114
0 -115 1 -35 56 c-19 30 -74 96 -123 145 -73 75 -92 89 -115 86 -22 -2 -27 -8
-24 -26 3 -33 55 -106 133 -187 l68 -70 -766 3 c-746 2 -767 3 -799 22 -68 43
-65 -22 -54 1203 5 606 7 1113 3 1127 -16 65 -64 100 -135 100 -55 -1 -70 -9
-169 -100 -105 -96 -127 -110 -167 -110 -29 0 -52 18 -180 139 -81 76 -193
186 -249 243 -99 101 -103 107 -103 148 0 42 3 47 142 188 79 79 303 301 500
493 l356 349 284 0 285 0 17 -62z m2113 -295 c48 -43 108 -95 132 -115 39 -33
43 -40 34 -61 -12 -26 -337 -363 -365 -378 -10 -5 -25 -6 -33 -1 -16 8 -245
263 -245 272 0 3 46 46 103 97 56 51 140 130 187 178 46 47 88 85 92 85 3 0
46 -35 95 -77z m-399 -537 l104 -91 -5 -70 c-5 -86 -37 -154 -100 -212 -84
-77 -130 -89 -277 -67 -123 19 -241 15 -287 -9 l-33 -17 6 47 c34 289 175 498
377 558 48 14 21 31 215 -139z"/>
<path d="M2071 2582 c-47 -18 -45 -16 -253 -268 -58 -71 -145 -171 -192 -223
-46 -52 -87 -105 -90 -117 -19 -74 87 -131 138 -75 8 9 50 73 94 143 133 212
295 440 327 459 17 11 43 19 58 19 39 0 95 -28 113 -55 8 -13 54 -138 102
-278 48 -140 96 -266 105 -281 34 -51 93 -80 172 -84 138 -7 190 35 285 236
32 68 66 132 76 143 33 36 74 25 221 -61 106 -62 145 -80 175 -80 51 0 78 27
78 79 0 46 -13 59 -161 157 -136 89 -170 104 -250 104 -54 0 -77 -5 -120 -28
-71 -37 -103 -85 -163 -250 -37 -99 -57 -139 -78 -157 -34 -29 -76 -32 -119
-9 -35 18 -43 33 -164 334 -50 124 -95 219 -114 241 -53 64 -152 85 -240 51z"/>
</g>
</svg>
