<?xml version="1.0" standalone="no"?>
<!DOCTYPE svg PUBLIC "-//W3C//DTD SVG 20010904//EN"
 "http://www.w3.org/TR/2001/REC-SVG-20010904/DTD/svg10.dtd">
<svg version="1.0" xmlns="http://www.w3.org/2000/svg"
 width="4000.000000pt" height="2662.000000pt" viewBox="0 0 4000.000000 2662.000000"
 preserveAspectRatio="xMidYMid meet">
<metadata>
Created by potrace 1.16, written by Peter Selinger 2001-2019
</metadata>
<g transform="translate(0.000000,2662.000000) scale(0.100000,-0.100000)"
fill="#2D57A6" stroke="none">
<path d="M20510 25800 c-30 -4 -110 -22 -178 -39 -81 -21 -169 -35 -260 -42
-75 -6 -221 -26 -324 -45 -110 -20 -219 -34 -266 -34 -96 0 -420 -48 -637 -95
-91 -20 -303 -81 -490 -140 -181 -58 -370 -117 -420 -131 -189 -53 -253 -89
-314 -177 -27 -39 -40 -47 -177 -101 -219 -87 -619 -263 -1059 -468 -169 -79
-981 -493 -1120 -571 -105 -60 -607 -391 -671 -443 -24 -20 -147 -111 -273
-203 -434 -314 -611 -454 -741 -582 -116 -114 -143 -150 -350 -449 l-224 -325
-153 -325 c-85 -179 -196 -410 -248 -515 -52 -104 -100 -214 -106 -244 -6 -31
-9 -99 -7 -155 5 -112 24 -168 76 -227 47 -54 76 -120 121 -275 22 -78 61
-188 85 -246 25 -57 61 -162 81 -234 41 -145 189 -495 296 -699 73 -140 121
-274 195 -539 25 -93 64 -213 86 -265 69 -166 118 -314 118 -359 0 -43 16 -84
51 -132 10 -14 36 -79 58 -145 43 -133 258 -645 323 -770 23 -44 69 -127 104
-185 75 -129 112 -201 160 -316 64 -155 234 -475 267 -503 45 -37 391 -196
522 -239 83 -28 228 -87 324 -132 339 -159 352 -162 800 -169 l353 -6 39 -64
c43 -72 47 -90 23 -126 -21 -33 -260 -224 -449 -361 -82 -59 -183 -131 -223
-160 -73 -53 -124 -83 -395 -233 -192 -107 -282 -164 -445 -283 -203 -148
-267 -183 -642 -345 -316 -138 -382 -164 -426 -170 -38 -5 -43 -3 -49 18 -4
13 -54 119 -110 234 -57 116 -118 246 -135 290 -17 44 -59 132 -92 195 -106
197 -135 263 -152 340 -13 58 -28 90 -65 140 -58 81 -108 163 -156 260 -21 41
-51 92 -67 113 -17 21 -44 70 -60 110 -17 40 -39 84 -50 100 -11 15 -30 54
-43 87 -13 33 -37 79 -54 102 -17 24 -63 122 -102 218 -39 96 -75 180 -80 186
-5 6 -27 69 -48 140 -99 327 -173 511 -277 684 -18 30 -38 80 -44 111 -7 36
-20 64 -34 78 -13 13 -38 60 -55 106 -18 46 -44 101 -58 122 -14 21 -32 55
-40 77 -7 22 -29 68 -49 103 -19 34 -39 88 -45 119 -6 32 -21 71 -33 88 -13
17 -28 54 -34 83 -14 63 -145 418 -182 493 -15 30 -39 87 -54 125 -15 39 -53
122 -86 185 -32 63 -72 149 -90 190 -65 150 -260 537 -291 576 -17 21 -44 65
-59 96 -15 32 -37 72 -49 91 -11 18 -28 64 -36 102 -9 37 -25 86 -36 108 -12
22 -27 64 -35 94 -19 71 -36 96 -80 112 -21 7 -58 26 -83 42 -54 35 -98 37
-160 7 -91 -42 -106 -65 -126 -198 -11 -71 -11 -90 1 -115 7 -16 33 -111 58
-210 39 -160 181 -581 274 -815 16 -41 33 -95 37 -120 4 -25 18 -65 30 -90 13
-25 43 -125 69 -222 25 -98 53 -192 61 -210 8 -18 44 -152 80 -298 36 -146 74
-285 85 -310 10 -25 24 -72 31 -105 6 -33 17 -69 24 -80 17 -27 99 -276 114
-344 6 -29 18 -65 26 -80 20 -33 85 -246 131 -426 19 -77 42 -160 49 -185 8
-25 42 -175 75 -333 33 -159 77 -339 96 -400 20 -62 43 -146 53 -187 10 -41
27 -95 38 -120 11 -25 24 -65 28 -90 4 -25 20 -68 36 -96 16 -29 34 -78 40
-110 6 -33 22 -81 35 -107 15 -30 24 -66 24 -94 0 -27 11 -71 29 -111 16 -37
32 -85 35 -107 10 -53 93 -273 117 -306 10 -14 24 -48 30 -75 6 -27 29 -97 50
-155 21 -58 55 -161 75 -230 20 -68 47 -147 60 -176 13 -28 24 -61 24 -73 0
-11 11 -48 25 -83 25 -60 75 -230 75 -253 0 -6 -62 -44 -137 -84 -208 -111
-442 -247 -619 -361 -213 -136 -201 -127 -385 -268 -348 -266 -485 -394 -658
-614 -64 -82 -147 -188 -184 -235 -144 -183 -304 -439 -357 -574 -18 -46 -62
-146 -97 -224 l-64 -141 -77 -7 c-98 -9 -150 -20 -402 -90 -240 -66 -327 -106
-515 -232 -294 -198 -477 -337 -578 -439 -91 -92 -334 -419 -449 -606 -85
-137 -157 -294 -217 -476 -49 -147 -64 -208 -85 -353 -42 -289 -48 -380 -49
-735 l0 -340 41 -200 c48 -237 128 -549 176 -694 77 -226 197 -391 494 -676
249 -239 528 -513 575 -565 27 -30 126 -135 220 -233 123 -129 198 -218 270
-320 228 -325 246 -357 273 -490 26 -129 13 -239 -72 -597 -35 -147 -39 -298
-10 -375 29 -74 75 -141 151 -218 51 -53 85 -78 148 -107 148 -69 183 -75 447
-75 l235 0 92 36 c213 83 340 198 439 400 44 88 151 362 187 476 41 129 43
165 11 258 -23 69 -28 104 -34 260 -9 200 -19 269 -55 408 -59 229 -182 468
-357 696 -100 130 -279 333 -317 360 -15 11 -58 56 -96 99 -37 43 -104 110
-149 148 -44 37 -128 116 -186 174 -58 58 -156 155 -219 215 -126 123 -209
221 -286 340 -77 117 -90 147 -168 379 l-70 211 -6 200 c-8 277 2 480 28 580
83 309 304 703 433 771 47 25 54 19 79 -68 61 -219 192 -479 396 -791 200
-306 356 -478 538 -592 130 -81 348 -194 422 -218 29 -10 117 -51 195 -93 137
-73 307 -145 413 -175 67 -19 604 -19 715 0 174 30 304 86 530 229 236 149
337 221 399 287 70 76 229 297 295 410 122 212 185 460 186 728 0 84 3 107 14
107 9 0 16 -16 20 -43 8 -53 42 -146 61 -167 18 -19 53 -98 116 -260 27 -69
55 -134 61 -145 6 -11 19 -53 30 -94 10 -41 24 -82 32 -90 19 -22 56 -97 56
-114 0 -7 23 -57 50 -111 28 -54 50 -111 50 -128 0 -16 15 -62 34 -101 18 -40
37 -86 40 -103 4 -18 16 -40 28 -50 28 -26 48 -69 98 -206 36 -102 41 -124 35
-170 -12 -97 13 -172 89 -276 85 -116 117 -179 161 -322 20 -63 52 -162 71
-220 19 -58 39 -128 45 -156 5 -29 39 -109 78 -185 38 -74 85 -175 105 -225
38 -98 39 -100 117 -524 28 -151 64 -341 80 -422 20 -101 29 -179 29 -246 0
-53 6 -115 12 -137 7 -22 11 -81 10 -131 -2 -65 2 -99 13 -120 8 -16 15 -55
15 -86 0 -31 5 -69 12 -85 7 -15 17 -73 24 -128 6 -55 19 -120 27 -145 26 -74
68 -209 83 -269 8 -31 26 -74 38 -96 13 -22 33 -71 44 -109 12 -37 30 -78 40
-90 11 -11 36 -61 55 -111 57 -147 84 -198 163 -312 42 -59 82 -119 89 -133
17 -33 249 -290 323 -358 85 -78 397 -255 471 -267 24 -4 73 -21 109 -38 48
-23 83 -31 128 -33 33 -1 86 -7 116 -14 42 -10 63 -10 89 -1 19 6 103 16 186
21 148 9 154 10 285 61 73 29 146 63 162 76 16 13 52 36 80 50 71 36 182 134
231 204 22 32 54 77 70 101 85 119 194 435 196 564 0 27 4 69 8 94 7 46 -17
303 -40 430 -7 35 -27 98 -46 140 -37 81 -39 85 -150 293 -40 77 -76 151 -79
165 -4 15 -16 45 -27 67 -11 22 -39 83 -62 135 -22 52 -100 201 -171 330 -72
129 -158 292 -191 362 -34 70 -83 160 -109 200 -25 40 -61 107 -78 148 -33 77
-108 196 -182 286 -22 28 -44 64 -48 80 -9 35 -115 214 -170 286 -21 28 -49
81 -63 117 -13 36 -37 86 -53 111 -16 25 -38 69 -49 98 -11 30 -36 77 -55 105
-20 29 -44 77 -55 107 -11 30 -66 154 -123 275 -112 236 -139 302 -188 465
-17 58 -43 125 -56 149 -19 35 -24 58 -24 118 0 49 -6 85 -17 106 -22 44 -43
124 -43 170 0 32 -3 37 -23 37 -19 0 -24 8 -35 52 -6 28 -32 94 -56 147 -83
181 -117 261 -132 311 -8 28 -33 74 -55 103 -21 29 -46 74 -55 100 -9 27 -36
71 -59 97 -31 35 -45 60 -50 92 -12 81 -67 323 -76 334 -5 6 -26 62 -48 125
-21 63 -57 161 -79 219 -45 118 -104 292 -131 390 -10 36 -31 107 -45 159 -15
52 -35 110 -46 130 -24 45 -77 202 -135 400 -43 148 -89 265 -159 401 -18 36
-43 94 -56 130 -13 36 -30 74 -37 86 -7 12 -38 102 -68 200 -31 98 -64 190
-75 204 -80 103 -234 407 -269 529 -11 41 -29 82 -40 92 -21 20 -111 179 -111
196 0 6 15 16 33 24 17 7 122 68 232 135 200 122 479 284 488 284 17 0 502
239 547 270 99 67 233 147 317 189 207 103 459 270 651 431 74 62 135 110 136
108 9 -9 94 -208 146 -337 32 -80 85 -212 119 -292 85 -204 120 -310 196 -579
96 -340 116 -426 195 -815 94 -466 140 -635 331 -1196 l161 -474 7 -135 c8
-149 6 -143 95 -275 98 -145 226 -411 226 -468 0 -31 -22 -61 -404 -537 -213
-266 -328 -418 -351 -465 -40 -79 -105 -296 -132 -437 -13 -73 -17 -141 -15
-323 1 -221 0 -232 -25 -312 -41 -132 -22 -225 67 -328 29 -34 48 -73 80 -172
84 -253 278 -779 313 -848 19 -39 58 -126 87 -194 28 -68 82 -186 120 -261 70
-139 95 -210 195 -544 31 -104 80 -250 109 -325 29 -75 68 -181 86 -236 33
-102 395 -1026 428 -1093 10 -20 49 -91 87 -157 80 -139 152 -289 189 -392 33
-93 53 -132 129 -251 34 -53 78 -123 96 -154 34 -56 36 -58 196 -137 88 -44
203 -97 255 -117 52 -20 134 -56 182 -80 110 -55 507 -231 613 -272 78 -30
458 -145 584 -177 35 -9 192 -36 350 -61 l286 -45 395 -4 c217 -2 701 -7 1075
-10 l680 -7 117 26 c64 14 210 40 323 56 219 32 436 78 637 134 151 42 190 50
348 76 69 12 195 39 280 60 85 21 245 55 355 75 256 46 343 67 687 164 374
105 494 143 771 245 127 47 324 117 437 157 269 93 438 167 705 307 261 136
425 231 635 365 85 55 224 143 308 196 206 129 307 203 567 410 327 261 430
366 717 732 l242 309 176 335 c124 236 191 375 224 468 77 213 87 261 90 442
5 219 14 266 88 429 41 89 41 89 35 185 -4 79 -14 122 -56 248 -64 192 -67
213 -46 296 10 40 14 80 10 99 -9 42 -68 159 -141 279 -98 161 -111 190 -177
374 -72 203 -111 290 -186 420 -57 100 -270 628 -321 795 -67 223 -97 307
-252 695 -88 220 -241 631 -340 914 -98 283 -185 525 -192 538 -6 13 -84 92
-172 176 -136 129 -177 162 -270 214 -60 35 -160 83 -223 109 -63 25 -146 61
-184 80 -133 67 -471 196 -547 209 -45 8 -223 75 -300 115 -155 79 -612 196
-900 230 -153 18 -162 20 -190 48 -20 21 -37 66 -74 197 -26 94 -63 220 -81
280 -99 322 -619 2152 -650 2285 -87 374 -282 1064 -405 1430 -224 670 -404
1132 -595 1530 -182 377 -275 600 -275 655 0 17 26 50 86 110 47 47 89 85 93
85 4 0 39 37 76 83 38 45 103 120 145 167 88 99 123 142 210 265 35 49 89 116
118 150 30 33 67 78 82 101 53 75 132 246 178 383 l46 136 4 347 c4 416 14
363 -158 878 -65 195 -132 416 -149 490 -84 374 -130 530 -221 762 -50 128
-125 329 -165 447 -114 335 -317 884 -373 1007 -56 124 -178 456 -211 577 -12
42 -53 162 -90 265 -38 103 -74 212 -81 242 -19 84 -33 103 -127 181 -49 40
-111 94 -140 120 -97 87 -279 180 -512 260 -280 97 -1232 328 -1520 369 -80
12 -175 27 -211 35 -36 7 -119 21 -186 29 -66 9 -185 34 -265 56 -259 72 -236
70 -983 69 -369 -1 -696 -5 -726 -9z m1160 -640 c234 -11 470 -26 525 -34 148
-22 512 -54 745 -66 311 -16 496 -52 880 -169 244 -74 395 -127 489 -173 70
-33 101 -57 182 -137 80 -80 98 -103 103 -136 4 -22 16 -55 27 -74 11 -18 18
-36 15 -38 -2 -2 -137 21 -300 51 -314 59 -370 65 -415 41 -25 -13 -61 -67
-61 -93 0 -17 66 -69 102 -81 18 -6 125 -24 238 -41 336 -51 475 -84 525 -124
19 -16 42 -70 99 -236 119 -345 134 -385 202 -529 59 -126 64 -143 64 -205 0
-37 6 -79 14 -94 7 -15 21 -67 30 -117 21 -107 98 -436 132 -555 25 -92 39
-160 32 -160 -3 0 -67 29 -144 64 -233 108 -442 172 -639 196 -49 6 -369 60
-710 120 -611 107 -624 109 -885 124 -681 40 -846 47 -888 41 -28 -4 -54 -16
-69 -32 -22 -21 -25 -31 -20 -69 9 -87 15 -90 184 -97 81 -4 249 -15 373 -26
124 -11 284 -22 355 -26 129 -6 845 -101 980 -130 39 -8 232 -40 431 -70 198
-30 395 -64 437 -75 242 -64 609 -229 680 -308 9 -9 19 -37 23 -60 l7 -42 -33
0 c-17 0 -46 6 -63 14 -40 18 -127 36 -174 36 -20 0 -230 45 -467 100 -237 55
-483 107 -546 115 -235 32 -537 93 -900 180 -292 71 -374 83 -675 97 -196 9
-308 9 -520 -1 -148 -7 -353 -16 -455 -21 -176 -8 -380 -23 -500 -35 -30 -4
-185 -27 -345 -51 -159 -25 -362 -54 -450 -64 -175 -21 -449 -74 -590 -114
-140 -39 -390 -126 -620 -216 -310 -121 -456 -173 -915 -325 -342 -114 -439
-151 -550 -208 -74 -37 -196 -97 -271 -131 -142 -66 -357 -190 -470 -273 -37
-26 -113 -82 -170 -123 -57 -41 -168 -128 -246 -193 -79 -65 -202 -158 -274
-208 -238 -164 -352 -254 -596 -475 -200 -180 -281 -262 -459 -464 -395 -447
-552 -643 -671 -838 -75 -123 -169 -315 -207 -420 -32 -90 -48 -122 -74 -145
-20 -19 -21 -18 -32 25 -6 23 -27 89 -46 145 -19 56 -36 124 -37 150 -2 50 13
86 117 283 71 133 71 171 -1 226 l-33 25 -42 -23 c-35 -19 -50 -39 -94 -123
-29 -55 -59 -100 -66 -100 -7 0 -17 27 -24 65 -16 88 -92 325 -177 550 -187
501 -230 642 -267 875 -6 33 -28 103 -49 155 -47 114 -106 304 -121 392 -10
59 -9 69 15 133 14 39 37 111 49 160 41 159 233 504 401 720 34 44 91 125 127
180 146 226 607 705 858 893 63 47 192 145 286 218 204 157 308 228 469 319
265 150 317 182 495 305 320 221 410 270 935 505 506 227 706 310 915 380 102
35 277 97 390 140 240 90 235 89 365 120 55 13 140 40 188 60 150 62 683 205
845 226 84 11 135 19 457 73 83 13 211 30 285 37 74 7 167 15 205 19 140 14
669 9 1085 -10z m915 -3455 c163 -14 485 -52 625 -75 30 -4 422 -114 872 -244
721 -208 828 -241 919 -286 145 -73 300 -173 383 -247 99 -88 126 -101 172
-84 20 7 40 9 44 5 27 -28 222 -387 250 -459 65 -174 64 -155 30 -425 -6 -47
-15 -131 -20 -188 -11 -114 -32 -208 -60 -261 -22 -42 -64 -97 -256 -334 -78
-95 -145 -181 -150 -190 -5 -8 -21 -18 -35 -22 -24 -6 -26 -4 -37 59 l-12 65
65 128 c78 151 95 219 95 381 0 127 -24 266 -66 382 -30 83 -53 125 -110 200
-88 117 -435 477 -472 491 -29 11 -83 -10 -106 -42 -22 -33 -20 -81 6 -115 12
-16 92 -101 178 -189 86 -88 178 -189 205 -225 102 -140 151 -277 162 -454 l6
-98 -33 17 c-19 10 -122 104 -230 210 -107 106 -210 206 -229 221 -19 16 -159
118 -310 226 -369 264 -485 323 -921 466 -331 109 -434 132 -607 132 -54 1
-152 8 -218 16 -153 20 -1114 31 -1288 15 -63 -5 -172 -24 -241 -41 -70 -17
-186 -40 -259 -51 -143 -21 -294 -55 -422 -94 -44 -14 -144 -39 -220 -55 -160
-35 -490 -125 -615 -168 -219 -75 -379 -150 -657 -304 -105 -59 -230 -116
-410 -188 -421 -167 -469 -195 -829 -477 -127 -99 -282 -218 -345 -265 -63
-46 -138 -106 -168 -132 -29 -26 -103 -84 -164 -130 -118 -87 -432 -397 -519
-511 -70 -93 -270 -510 -400 -835 -16 -41 -43 -97 -59 -123 -72 -117 -114
-291 -106 -432 7 -118 73 -353 211 -758 58 -170 106 -310 106 -312 0 -1 -19 1
-42 6 -24 4 -72 8 -108 9 -36 0 -83 5 -105 11 -22 6 -76 15 -120 20 -43 5
-105 18 -137 29 -32 11 -71 20 -86 20 -47 0 -315 57 -347 74 -16 9 -38 16 -48
16 -9 0 -57 20 -106 44 -71 36 -99 57 -148 113 -74 84 -72 79 -123 238 -23 72
-73 198 -110 280 -85 187 -101 255 -77 322 9 27 17 77 17 113 0 36 7 92 15
125 8 33 14 89 15 124 0 62 9 126 51 376 29 177 48 253 80 322 24 55 145 274
260 473 21 36 144 188 281 343 l243 279 585 476 c626 510 760 614 940 733 149
98 219 136 481 257 229 106 382 165 919 349 184 63 412 144 505 180 144 54
204 71 390 108 121 24 342 73 490 109 291 70 478 110 565 121 30 4 120 22 200
41 208 48 297 61 550 79 124 9 275 20 335 25 149 12 658 3 880 -15z m195
-1536 c53 -9 70 -16 68 -27 -3 -15 -97 -59 -368 -172 -374 -156 -491 -225
-895 -530 -218 -164 -313 -247 -720 -630 -465 -438 -615 -594 -1155 -1199
l-423 -474 -526 -726 c-537 -742 -866 -1222 -983 -1436 -89 -163 -210 -406
-239 -483 -13 -34 -28 -61 -34 -59 -5 2 -18 19 -27 38 -36 73 -259 694 -284
790 l-26 101 23 52 c13 28 84 146 158 261 284 446 361 580 481 850 136 302
165 351 375 620 73 94 184 249 247 345 177 268 312 405 853 860 127 107 322
273 435 368 423 359 643 528 820 629 58 34 224 122 370 197 146 75 317 168
380 207 63 38 217 121 341 184 124 62 257 132 295 156 81 49 143 77 199 90 54
11 546 2 635 -12z m-2515 -297 c-162 -95 -324 -216 -700 -521 -192 -156 -829
-699 -948 -808 -39 -35 -121 -107 -182 -158 -155 -130 -277 -270 -415 -475
-64 -96 -144 -209 -176 -250 -116 -145 -247 -323 -329 -445 -82 -122 -117
-189 -225 -427 -121 -266 -358 -676 -392 -678 -3 0 -11 21 -17 48 -15 71 -218
672 -241 713 -15 27 -20 55 -20 107 0 66 4 78 50 167 28 53 84 182 124 288 61
160 134 319 244 534 10 18 76 95 149 171 107 113 182 178 405 352 150 118 329
261 398 318 214 177 401 312 433 312 17 0 -80 -108 -314 -345 -130 -132 -243
-254 -252 -272 -25 -47 -21 -80 12 -114 33 -32 67 -37 110 -14 37 19 702 708
721 747 13 27 13 33 -8 68 -12 22 -22 47 -22 57 0 18 131 81 850 409 309 141
672 263 785 263 l40 1 -80 -48z m3610 -35 c37 -19 390 -268 433 -306 l44 -38
-171 -109 c-249 -159 -398 -257 -555 -368 -76 -54 -222 -146 -325 -205 -169
-97 -252 -157 -871 -626 -377 -285 -723 -553 -770 -594 -174 -156 -560 -534
-705 -691 -82 -89 -197 -207 -255 -263 -184 -177 -293 -290 -374 -387 -44 -52
-114 -131 -156 -175 -235 -249 -577 -677 -730 -915 -40 -63 -185 -284 -320
-490 -345 -526 -319 -482 -746 -1265 -214 -394 -274 -490 -293 -469 -4 5 -65
155 -135 333 l-128 324 25 46 c30 56 84 186 125 301 58 164 226 543 318 714
26 49 116 191 199 315 84 124 196 296 250 381 54 85 119 182 145 215 43 55
211 291 510 715 157 223 466 605 799 990 204 235 677 716 946 962 265 242
1037 895 1144 967 81 55 350 194 511 264 200 87 933 380 975 390 25 6 84 -3
110 -16z m903 -1162 c55 -154 136 -389 179 -523 l79 -243 -40 7 c-64 11 -297
90 -471 161 -321 131 -614 232 -726 251 -37 6 -44 11 -47 33 -3 21 5 30 50 54
29 16 121 76 203 135 359 255 646 432 666 412 4 -4 52 -133 107 -287z m-1457
-795 c142 -68 383 -154 644 -230 61 -17 171 -58 245 -90 74 -31 187 -76 250
-98 63 -22 210 -74 325 -116 254 -90 352 -116 470 -125 l90 -6 37 -75 c85
-174 236 -555 224 -568 -3 -2 -335 77 -738 177 -403 100 -807 200 -898 223
-91 22 -232 62 -315 88 -161 52 -634 219 -830 294 -66 26 -147 53 -180 62
-182 47 -197 57 -127 93 58 29 179 123 362 280 90 77 178 148 195 156 45 23
83 13 246 -65z m-1221 -930 c30 -12 144 -46 252 -76 109 -29 257 -77 330 -105
631 -242 997 -353 1666 -505 299 -68 426 -100 652 -164 75 -22 284 -73 466
-114 182 -41 345 -81 363 -90 17 -9 38 -31 46 -49 27 -64 115 -353 115 -380 0
-27 -1 -28 -42 -23 -24 3 -88 8 -143 11 -55 4 -192 19 -305 35 -113 16 -248
34 -300 39 -52 6 -264 38 -470 71 -387 63 -443 72 -768 115 -107 14 -241 37
-300 50 -58 14 -175 37 -261 50 -352 57 -1199 237 -1214 259 -4 6 -5 24 -2 39
6 37 -17 92 -46 107 -33 18 -106 7 -135 -21 -13 -12 -29 -39 -34 -59 l-10 -37
-57 9 c-130 20 -651 152 -678 172 -15 10 -4 26 87 122 56 60 127 136 157 168
30 32 149 147 265 257 l210 198 51 -29 c27 -16 75 -38 105 -50z m-10051 -286
c12 -15 21 -33 21 -40 0 -31 34 -110 76 -175 62 -95 89 -162 184 -459 45 -140
95 -284 110 -320 15 -36 37 -90 49 -120 12 -30 59 -125 105 -211 46 -86 86
-167 89 -181 4 -13 17 -40 31 -59 43 -60 154 -252 184 -319 16 -36 47 -86 68
-112 40 -48 97 -169 143 -303 31 -89 59 -147 135 -280 29 -49 76 -151 105
-225 29 -74 68 -158 88 -187 19 -29 45 -83 56 -120 12 -37 34 -84 48 -103 14
-19 41 -62 59 -95 18 -33 69 -116 113 -184 44 -69 101 -168 127 -220 26 -53
77 -154 114 -226 37 -71 77 -152 89 -180 12 -27 37 -75 57 -106 20 -31 45 -78
55 -105 10 -27 29 -62 42 -78 13 -15 63 -108 110 -205 48 -97 122 -243 166
-326 44 -82 93 -177 110 -210 16 -33 38 -71 47 -85 10 -14 27 -56 40 -95 31
-94 122 -276 220 -439 44 -73 80 -144 80 -157 0 -34 80 -279 101 -309 9 -14
40 -72 68 -129 28 -58 55 -109 60 -115 5 -6 17 -40 26 -75 9 -36 25 -82 36
-104 11 -21 29 -79 40 -129 18 -82 53 -186 140 -413 17 -44 38 -107 46 -140
28 -116 228 -711 256 -764 21 -39 36 -93 53 -189 13 -74 29 -151 35 -171 32
-97 92 -216 133 -265 26 -29 54 -76 63 -102 9 -27 24 -60 34 -74 25 -36 45
-115 70 -265 15 -96 26 -136 40 -151 11 -12 29 -49 39 -82 11 -33 33 -88 49
-120 17 -33 38 -92 47 -132 9 -39 22 -74 29 -76 16 -7 30 -42 44 -112 6 -29
24 -78 40 -110 15 -31 34 -75 41 -97 29 -93 102 -259 129 -298 17 -23 33 -62
37 -87 4 -27 54 -139 122 -275 63 -126 139 -278 168 -337 53 -106 94 -221 94
-262 0 -43 186 -396 252 -480 33 -41 81 -177 93 -264 5 -37 25 -83 73 -164 69
-120 154 -280 259 -492 35 -70 83 -159 108 -197 27 -42 56 -107 76 -169 21
-67 41 -111 59 -128 15 -15 37 -54 49 -87 26 -68 46 -95 73 -95 14 0 18 -8 18
-32 0 -18 7 -109 14 -201 13 -152 16 -170 35 -183 12 -9 27 -27 35 -42 14 -27
49 -230 61 -354 6 -65 5 -70 -29 -126 -19 -32 -44 -79 -55 -105 -13 -31 -34
-56 -61 -74 -99 -67 -125 -90 -133 -118 -7 -26 -23 -37 -115 -79 -100 -47
-113 -50 -202 -53 -95 -4 -95 -4 -211 45 -89 37 -135 64 -195 114 -43 35 -106
85 -139 110 -102 78 -238 219 -274 283 -19 33 -74 121 -123 196 -52 81 -97
163 -110 200 -11 35 -26 70 -32 78 -20 25 -136 468 -136 518 0 19 -7 62 -15
96 -8 34 -24 134 -35 222 -26 197 -54 369 -74 455 -8 36 -20 106 -26 155 -10
80 -49 225 -112 410 -17 53 -30 103 -44 182 -3 16 -15 25 -43 33 -21 5 -44 16
-50 24 -18 21 -117 322 -141 426 -32 140 -79 298 -106 355 -13 28 -35 91 -49
140 -15 50 -50 135 -79 190 -30 55 -66 131 -81 170 -15 38 -40 92 -55 120 -52
92 -208 479 -215 532 -4 32 -19 70 -41 104 -18 29 -39 69 -45 88 -6 19 -26 66
-44 105 -17 39 -42 103 -55 141 -13 39 -29 79 -36 90 -7 11 -18 40 -24 65 -15
57 -34 93 -64 123 -14 14 -30 44 -36 68 -7 24 -25 78 -40 119 -16 41 -34 95
-40 120 -7 24 -25 69 -40 100 -15 30 -40 84 -54 119 -14 36 -32 72 -40 80 -8
9 -42 95 -76 191 -35 96 -73 195 -85 220 -12 25 -26 67 -29 93 -7 47 -64 210
-111 317 -13 30 -45 127 -70 215 -26 88 -53 171 -61 185 -7 14 -34 102 -59
195 -26 94 -55 185 -66 203 -10 18 -26 60 -34 95 -47 184 -297 949 -373 1144
-22 54 -71 202 -111 328 -40 127 -98 295 -128 375 -63 163 -68 178 -118 345
-20 66 -46 143 -57 170 -22 54 -47 131 -162 500 -41 132 -86 272 -101 310 -60
156 -98 267 -139 405 -67 224 -130 410 -201 590 -35 91 -81 224 -101 295 -20
72 -47 150 -59 175 -12 25 -26 68 -30 95 -4 28 -20 80 -36 117 -16 37 -33 87
-38 110 -4 24 -19 70 -33 103 -14 33 -29 82 -33 109 -3 27 -19 81 -35 120 -34
84 -80 258 -80 300 0 16 -9 48 -19 70 -27 55 -71 258 -71 323 0 29 -8 74 -19
100 -10 26 -22 64 -25 83 -10 50 -52 206 -91 335 -49 165 -54 185 -45 185 5 0
18 -12 29 -26z m8904 -945 c103 -23 187 -46 187 -50 0 -4 -39 -61 -87 -126
-48 -65 -153 -215 -233 -334 -81 -118 -190 -273 -243 -342 -53 -70 -140 -183
-192 -252 -196 -256 -426 -617 -627 -985 -81 -148 -167 -284 -304 -480 -194
-277 -493 -892 -649 -1334 -29 -83 -80 -221 -113 -306 -61 -160 -72 -193 -93
-270 l-12 -45 -68 244 -69 243 33 37 c35 39 38 45 137 261 34 74 74 158 90
185 16 28 95 181 178 340 82 160 178 335 214 391 37 55 96 161 133 235 85 169
155 288 241 409 161 228 175 311 54 327 -40 6 -43 4 -95 -49 -76 -79 -233
-323 -339 -527 -51 -97 -111 -204 -134 -238 -23 -34 -142 -253 -263 -485 -122
-233 -234 -447 -250 -477 -16 -30 -29 -61 -29 -68 0 -7 -11 -13 -24 -13 -23 0
-24 4 -31 78 l-7 78 411 728 c226 400 439 783 473 850 34 66 117 203 185 304
68 100 191 289 274 420 244 381 306 469 543 772 124 159 370 443 419 485 27
23 51 35 71 35 17 0 115 -18 219 -41z m952 -214 c55 -7 143 -23 195 -35 197
-43 475 -113 483 -120 13 -12 -16 -61 -80 -131 -32 -36 -113 -137 -180 -225
-67 -87 -177 -222 -245 -299 -204 -232 -224 -258 -531 -682 -251 -348 -325
-458 -495 -743 -110 -184 -229 -375 -264 -425 -35 -49 -87 -129 -116 -176 -59
-98 -258 -519 -339 -719 -30 -74 -88 -207 -128 -295 -91 -199 -151 -351 -303
-770 -193 -528 -231 -622 -387 -955 -110 -234 -118 -264 -117 -399 2 -140 -5
-158 -102 -247 l-71 -66 -49 103 c-123 264 -135 320 -91 434 56 145 244 714
249 756 7 48 3 57 -34 82 -36 25 -92 22 -118 -6 -29 -30 -109 -236 -168 -427
-42 -140 -62 -180 -86 -180 -4 0 -8 7 -8 15 0 8 -18 70 -41 137 -22 68 -49
151 -59 186 l-19 62 22 12 c12 6 45 33 74 60 43 41 60 68 97 156 25 59 59 139
77 177 17 39 100 266 184 505 141 402 303 817 377 964 69 137 259 463 378 646
197 305 271 427 400 665 112 205 336 539 534 793 137 177 192 253 364 502 75
107 193 274 262 370 69 96 144 201 166 232 21 32 46 58 54 58 8 0 60 -7 115
-15z m1361 -276 c3 -6 -11 -44 -31 -84 -42 -82 -42 -105 1 -148 65 -66 170 1
218 139 13 39 14 39 70 42 l57 3 -15 -35 c-33 -78 -208 -325 -406 -571 -176
-219 -490 -687 -825 -1230 -366 -593 -394 -643 -575 -1050 -132 -297 -161
-353 -263 -515 -46 -75 -98 -163 -115 -197 -75 -148 -218 -508 -324 -813 -46
-135 -66 -158 -204 -235 -113 -65 -129 -71 -119 -48 22 52 36 142 30 191 -6
48 -9 54 -42 67 -41 18 -77 19 -103 5 -23 -13 -57 -118 -100 -315 -43 -196
-44 -199 -100 -240 -56 -41 -160 -105 -171 -105 -4 0 16 51 46 113 68 142 192
460 215 552 24 94 400 1034 507 1265 100 217 136 281 298 535 67 105 146 231
175 280 177 297 486 768 640 975 122 164 175 228 374 455 92 105 228 270 303
368 74 97 178 226 231 285 107 121 128 159 138 255 l7 67 38 0 c21 0 41 -5 45
-11z m1651 -258 c714 -104 830 -117 1081 -127 l182 -7 6 -26 c4 -14 21 -87 40
-162 18 -75 36 -161 40 -192 8 -64 3 -67 -66 -47 -19 6 -109 13 -200 16 -154
5 -167 4 -197 -15 -29 -18 -33 -26 -33 -67 0 -89 36 -114 162 -114 134 0 380
-34 397 -54 10 -13 81 -291 81 -318 0 -24 -22 -20 -204 28 -71 19 -229 55
-350 79 -122 25 -306 65 -411 90 -104 25 -266 61 -360 80 -93 19 -231 52 -305
74 -191 57 -574 119 -810 133 -102 5 -186 11 -188 13 -14 13 172 301 192 298
6 0 48 -10 94 -21 111 -28 147 -12 167 69 13 52 -46 119 -105 119 -28 0 -25
13 14 79 19 31 47 82 63 114 26 55 30 58 58 54 16 -3 310 -46 652 -96z m-8058
-560 c12 -38 21 -73 21 -79 0 -11 -169 -160 -270 -239 -126 -98 -464 -305
-650 -398 -137 -68 -406 -223 -431 -248 -42 -42 -40 -86 7 -127 43 -38 63 -36
164 11 183 85 696 376 870 492 80 54 149 107 295 225 l89 72 23 -42 c40 -78
28 -116 -76 -235 -174 -198 -472 -412 -810 -582 -66 -33 -150 -82 -188 -109
-101 -72 -173 -110 -430 -225 -197 -89 -279 -133 -548 -297 -174 -106 -324
-194 -334 -197 -9 -2 -26 6 -38 19 -29 32 -274 521 -265 529 4 4 171 78 372
164 414 178 492 218 727 383 214 150 353 237 636 400 251 145 325 193 407 262
30 25 71 57 90 70 19 14 67 50 106 81 84 69 185 138 201 138 6 1 20 -30 32
-68z m7081 -672 c293 -15 393 -30 660 -104 129 -35 327 -82 440 -105 113 -22
300 -63 415 -90 116 -27 272 -61 348 -75 75 -14 204 -44 285 -66 137 -37 486
-134 524 -145 10 -3 19 -20 23 -47 3 -23 42 -152 85 -287 79 -246 100 -328 84
-317 -5 2 -160 71 -344 152 -376 166 -483 204 -587 212 -70 6 -72 5 -104 -26
-29 -29 -31 -36 -27 -83 3 -27 11 -54 18 -58 7 -4 69 -22 138 -40 160 -41 190
-53 522 -200 316 -140 445 -205 470 -238 33 -41 122 -352 102 -352 -4 0 -47 7
-97 15 -62 10 -167 15 -341 15 l-251 0 -6 54 c-7 68 -37 127 -82 161 -19 15
-157 99 -307 187 -254 148 -295 168 -597 295 -179 74 -399 171 -490 215 -91
44 -222 104 -291 135 -124 54 -606 223 -750 262 -120 32 -496 117 -608 137
-103 18 -103 18 -97 43 4 14 9 28 11 30 3 3 29 -7 58 -22 60 -31 120 -43 251
-52 128 -9 230 -22 380 -50 72 -13 213 -36 315 -50 329 -46 406 -62 775 -164
108 -30 328 -71 378 -71 14 0 38 11 53 24 24 20 28 31 29 76 0 71 -20 86 -161
112 -60 11 -181 37 -269 59 -263 64 -1232 238 -1452 260 -206 21 -249 30 -239
54 3 8 28 49 56 90 l51 75 212 -5 c117 -3 304 -10 417 -16z m-865 -984 c297
-54 602 -136 924 -247 217 -75 349 -130 741 -308 195 -89 402 -178 460 -199
132 -48 163 -64 190 -98 l22 -28 -49 -7 c-26 -4 -111 -14 -188 -23 -77 -8
-162 -19 -189 -24 -27 -5 -59 -5 -71 -1 -12 5 -73 42 -136 83 -151 99 -394
228 -604 320 -173 76 -463 216 -545 262 -25 14 -52 25 -62 25 -33 0 -67 -23
-83 -57 -31 -64 -6 -102 113 -177 70 -44 289 -150 422 -205 69 -28 223 -100
342 -159 189 -93 217 -110 218 -130 l0 -23 -142 2 c-134 3 -151 1 -267 -30
-67 -18 -129 -30 -137 -27 -7 3 -25 28 -39 56 -35 68 -99 131 -166 162 -30 14
-110 43 -179 63 -94 29 -1036 358 -1142 400 -21 8 -23 38 -7 85 l12 33 66 -6
c36 -4 117 -11 180 -17 63 -6 125 -9 138 -5 36 9 58 68 44 116 -16 52 -68 76
-191 86 -94 8 -95 8 -92 33 5 34 29 69 53 78 30 12 210 -5 364 -33z m-10072
-650 c9 -22 16 -52 17 -67 0 -15 14 -57 32 -92 42 -86 36 -98 -84 -166 -157
-89 -310 -203 -433 -321 -33 -32 -132 -116 -220 -186 -125 -100 -188 -161
-293 -278 -73 -82 -167 -199 -210 -260 -42 -60 -123 -167 -180 -239 -120 -151
-214 -285 -265 -376 -21 -40 -70 -176 -125 -350 -131 -416 -176 -688 -141
-849 6 -29 35 -91 67 -143 31 -51 84 -157 118 -235 68 -158 60 -143 198 -350
156 -232 236 -298 431 -359 84 -25 102 -27 275 -28 166 -1 194 1 267 23 217
62 404 254 489 501 15 45 19 85 19 220 0 188 8 164 -116 347 -126 186 -216
272 -354 338 -135 65 -242 86 -470 91 -110 3 -214 7 -231 10 -38 5 -45 25 -35
99 l6 50 49 7 c90 13 111 66 62 155 -15 25 -25 48 -23 50 2 1 30 8 63 14 134
25 321 -16 586 -130 322 -138 448 -207 640 -348 79 -59 95 -76 171 -191 99
-150 170 -270 235 -395 l47 -92 0 -180 c-1 -213 -10 -257 -90 -420 -63 -131
-153 -253 -262 -355 -62 -59 -117 -97 -260 -178 -252 -144 -254 -145 -538
-139 -135 3 -246 9 -270 16 -97 29 -179 66 -276 123 -57 34 -136 74 -175 89
-106 41 -361 177 -424 225 -71 55 -133 130 -232 277 -81 121 -219 350 -264
439 -64 126 -151 384 -179 528 -20 101 -20 424 -1 523 17 86 21 119 41 309 18
170 37 238 112 403 30 66 79 182 108 257 29 76 68 165 87 198 99 178 485 670
629 801 224 203 326 282 634 486 182 120 295 186 470 274 l230 117 26 -102
c15 -55 34 -119 42 -141z m9320 -290 c47 -13 159 -52 249 -86 90 -34 242 -90
338 -126 96 -35 179 -68 184 -73 4 -4 -2 -15 -15 -23 -37 -24 -354 -117 -402
-118 -30 -1 -93 19 -226 71 -100 39 -221 81 -267 93 -63 16 -84 26 -84 39 0
21 119 248 130 248 4 0 46 -11 93 -25z m-294 -415 c21 -10 59 -24 84 -30 24
-7 90 -28 145 -49 91 -33 99 -38 87 -54 -7 -10 -64 -40 -126 -66 -63 -27 -172
-78 -244 -113 -71 -36 -144 -69 -162 -73 l-32 -6 40 88 c91 199 153 323 161
323 5 0 26 -9 47 -20z m4921 -134 c80 -14 206 -32 280 -41 140 -17 261 -42
365 -75 33 -11 107 -28 165 -39 124 -24 215 -50 610 -177 162 -53 354 -113
425 -134 72 -21 147 -45 168 -53 l38 -16 6 29 c4 22 11 30 28 30 40 0 147 -41
277 -106 70 -35 174 -81 231 -103 56 -21 122 -48 145 -60 48 -24 117 -84 134
-114 9 -17 8 -19 -8 -13 -11 4 -91 18 -179 31 -88 13 -180 28 -205 34 -79 20
-389 42 -411 30 -45 -24 -51 -96 -11 -139 30 -34 60 -41 237 -60 55 -6 143
-21 195 -34 52 -13 127 -27 165 -31 115 -12 323 -53 348 -70 36 -23 70 -94
122 -255 114 -353 202 -593 255 -700 69 -137 73 -150 106 -350 14 -85 41 -220
60 -300 46 -193 46 -190 35 -190 -34 0 -191 38 -401 98 -375 107 -933 252
-971 252 -46 0 -76 -23 -90 -69 -15 -51 5 -82 77 -116 55 -26 365 -113 757
-211 348 -87 618 -163 657 -185 20 -12 44 -34 54 -49 17 -30 38 -120 27 -120
-3 0 -80 23 -171 50 -91 28 -228 67 -305 86 -77 19 -225 62 -330 95 -104 32
-266 77 -360 99 -93 21 -224 58 -290 80 -148 50 -270 82 -445 114 -74 14 -178
35 -230 46 -114 24 -179 25 -375 5 -110 -12 -241 -15 -495 -13 -341 3 -347 2
-484 -25 -108 -21 -236 -34 -560 -57 -577 -41 -614 -47 -1051 -150 -206 -49
-340 -75 -465 -90 -276 -33 -375 -49 -520 -85 -74 -18 -155 -36 -179 -39 -58
-9 -535 -138 -626 -169 -181 -63 -345 -136 -550 -245 -77 -41 -198 -101 -268
-134 -71 -33 -188 -92 -260 -132 -73 -40 -186 -100 -252 -134 -127 -65 -151
-81 -426 -288 -96 -72 -268 -197 -383 -279 -211 -150 -350 -262 -506 -410 -47
-45 -125 -115 -175 -157 -375 -316 -889 -900 -1062 -1209 -88 -157 -275 -589
-343 -792 -38 -116 -66 -185 -72 -179 -13 13 -98 239 -109 293 -12 54 2 96
130 388 120 273 175 377 318 594 70 108 171 263 223 343 110 170 234 320 406
490 75 74 125 131 130 148 10 39 -17 90 -55 106 -70 29 -137 -22 -388 -300
-140 -154 -212 -248 -352 -457 -197 -296 -346 -561 -421 -753 -52 -129 -72
-170 -98 -193 -20 -18 -20 -17 -32 55 -14 82 -50 188 -205 598 -100 263 -171
502 -215 714 -6 32 -29 104 -50 160 -21 55 -43 137 -49 181 -19 128 -31 175
-71 265 -83 187 -155 436 -166 570 -5 63 -1 89 21 165 14 49 38 111 52 137 39
71 169 240 286 371 88 98 116 138 162 230 69 136 137 222 252 319 115 96 298
274 376 366 34 40 126 129 204 198 151 131 179 164 175 199 -6 43 125 141 578
435 297 192 321 210 473 344 123 110 135 117 237 141 91 21 126 41 208 117 69
63 132 98 323 179 68 28 219 97 334 152 272 128 335 156 539 233 390 148 789
255 1156 310 91 14 221 38 290 54 155 36 300 57 472 71 146 11 287 28 538 64
323 47 339 48 665 47 176 -1 352 3 390 8 39 4 194 7 345 5 241 -3 293 -6 420
-29z m-13591 -241 c10 -33 26 -78 36 -100 31 -72 120 -318 157 -435 11 -36 31
-99 45 -140 13 -41 29 -93 35 -115 5 -22 23 -74 40 -117 16 -42 32 -96 34
-120 3 -23 16 -68 28 -98 23 -52 36 -95 92 -290 13 -47 29 -98 35 -115 6 -16
18 -50 26 -75 9 -25 30 -87 49 -139 19 -52 34 -103 34 -115 -1 -21 -1 -21 -16
-1 -8 11 -59 92 -111 180 -116 192 -172 252 -386 412 -164 122 -400 251 -620
337 -64 26 -152 64 -195 85 -69 35 -139 59 -314 106 -84 22 -77 53 34 173 40
43 107 117 148 165 43 50 123 126 185 175 61 48 159 133 219 189 113 108 276
228 336 249 l35 12 28 -81 c16 -45 37 -109 46 -142z m-3299 -1264 l0 -48 -87
-33 c-190 -72 -374 -177 -678 -385 -186 -127 -251 -187 -261 -240 -6 -35 -4
-41 26 -68 28 -25 38 -28 69 -22 56 10 138 58 294 171 320 233 456 312 565
329 l42 7 0 -59 c0 -97 -1 -98 -124 -157 -135 -64 -220 -123 -333 -229 -235
-223 -381 -481 -538 -952 -71 -210 -78 -285 -73 -690 5 -344 10 -377 87 -651
97 -343 166 -480 376 -749 116 -148 200 -240 293 -317 45 -38 270 -268 500
-510 393 -416 421 -447 488 -559 175 -290 210 -536 124 -868 -32 -123 -36
-173 -19 -248 11 -45 9 -54 -20 -125 -31 -72 -55 -107 -67 -96 -3 3 9 113 26
244 39 293 43 457 13 524 -26 59 -47 75 -100 75 -35 0 -49 -5 -64 -24 -17 -21
-19 -41 -19 -192 0 -163 -16 -325 -44 -454 -8 -33 -17 -86 -21 -118 -7 -65
-35 -105 -75 -109 -25 -3 -25 -2 -22 67 2 45 16 115 40 195 l37 125 0 270 c0
256 -1 274 -23 340 -41 123 -147 324 -221 420 -38 50 -118 160 -177 245 -146
210 -157 224 -329 395 -83 83 -211 212 -285 289 -74 76 -207 206 -295 288
-211 197 -436 434 -483 507 -52 79 -67 122 -101 286 -16 77 -45 195 -64 262
-69 232 -72 264 -72 698 0 372 1 395 24 500 26 122 67 265 112 394 53 150 374
642 507 777 28 29 99 85 159 126 59 42 156 111 215 155 177 134 213 152 413
210 99 29 181 52 183 52 1 1 2 -21 2 -48z m2040 -1155 c47 -13 111 -29 143
-36 37 -7 70 -22 89 -39 30 -27 30 -28 14 -58 -27 -54 -50 -63 -152 -63 -51 0
-99 3 -108 6 -19 7 -106 124 -136 183 l-22 44 44 -7 c23 -4 81 -17 128 -30z
m16401 -690 c68 -14 176 -34 239 -46 63 -12 187 -46 275 -76 88 -29 222 -67
298 -84 76 -17 226 -59 335 -94 108 -35 277 -82 375 -105 219 -51 274 -69 402
-131 180 -87 352 -212 548 -400 89 -85 107 -108 112 -138 24 -155 35 -181 141
-322 77 -102 141 -226 192 -367 l27 -78 -2 -280 c-4 -395 -16 -524 -59 -644
-19 -53 -67 -157 -106 -231 -39 -74 -108 -205 -153 -290 -130 -247 -203 -353
-441 -630 -277 -324 -673 -629 -1409 -1085 -132 -82 -623 -342 -755 -401 -58
-25 -175 -70 -260 -99 -85 -29 -265 -95 -400 -148 -135 -52 -310 -116 -390
-140 -708 -221 -634 -202 -1575 -393 -176 -35 -394 -84 -485 -109 -237 -63
-402 -97 -777 -160 l-332 -55 -598 0 c-408 0 -670 5 -823 15 -124 8 -318 15
-431 15 l-205 0 -281 54 c-289 56 -581 135 -738 200 -417 174 -618 280 -845
444 -123 89 -186 146 -205 182 -7 14 -21 54 -29 88 -9 34 -29 94 -45 134 -24
61 -30 93 -35 198 -3 69 -13 154 -22 190 -13 51 -17 137 -21 408 -6 439 -7
433 152 791 248 560 254 570 430 787 179 220 295 351 406 458 63 59 159 152
214 206 55 53 146 137 203 186 56 49 137 120 180 157 93 83 858 658 1002 754
210 141 1152 603 1388 683 81 27 203 61 272 75 69 15 220 49 335 76 230 53
282 62 430 79 55 7 316 54 580 105 579 113 652 124 1080 150 132 8 330 26 440
39 278 34 331 38 660 46 551 13 570 12 706 -14z"/>
<path d="M20020 24859 c-47 -16 -139 -44 -205 -60 -451 -114 -721 -209 -1148
-406 -267 -122 -348 -152 -541 -193 -256 -55 -368 -90 -531 -165 -228 -105
-355 -156 -610 -245 -428 -149 -652 -243 -826 -347 -80 -48 -159 -120 -159
-146 0 -23 57 -95 82 -103 17 -5 81 23 283 124 271 137 407 194 610 258 186
58 431 148 530 194 50 23 183 77 298 121 167 63 241 85 385 115 196 40 303 76
491 166 455 216 702 306 1165 422 234 59 352 105 381 150 22 33 13 89 -20 122
-33 33 -80 31 -185 -7z"/>
<path d="M21640 24749 c-410 -15 -508 -24 -538 -46 -36 -27 -42 -93 -12 -141
l21 -34 257 7 c141 3 365 10 497 16 132 5 500 9 818 9 629 0 629 0 643 55 20
81 -29 103 -246 115 -85 4 -168 13 -183 19 -33 13 -910 13 -1257 0z"/>
<path d="M15083 22820 c-13 -5 -89 -74 -170 -152 -82 -79 -203 -192 -271 -251
-181 -160 -255 -248 -598 -717 -114 -156 -275 -370 -357 -475 -175 -224 -262
-350 -278 -405 -11 -35 -10 -42 7 -61 25 -28 67 -49 96 -49 36 1 63 28 162
158 50 67 172 229 272 359 99 131 213 285 254 343 85 122 310 418 384 505 59
70 175 177 369 340 257 218 329 338 234 395 -34 21 -68 24 -104 10z"/>
<path d="M19895 22470 c-124 -27 -866 -230 -995 -274 -58 -19 -177 -65 -265
-101 -88 -36 -295 -112 -460 -169 -682 -236 -725 -253 -764 -302 -12 -15 -21
-38 -21 -51 0 -36 27 -81 59 -97 24 -13 34 -13 73 -1 25 7 60 21 77 29 17 9
223 82 458 162 236 81 482 169 548 196 407 168 769 281 1269 394 132 30 241
56 243 57 11 12 14 101 4 125 -23 56 -76 63 -226 32z"/>
<path d="M15830 20763 c-49 -19 -501 -404 -885 -753 -305 -278 -348 -325 -564
-623 -130 -180 -161 -232 -161 -270 0 -32 36 -76 74 -92 57 -24 87 3 227 205
101 147 173 240 259 338 89 103 515 492 800 732 312 262 334 281 355 314 22
34 22 82 -1 107 -16 18 -76 51 -86 48 -2 0 -10 -3 -18 -6z"/>
<path d="M22076 21321 c-44 -9 -86 -50 -86 -83 0 -39 31 -86 63 -98 18 -6 129
-15 247 -20 118 -5 262 -14 320 -20 58 -6 215 -15 350 -20 206 -7 264 -12 362
-34 137 -30 175 -32 204 -8 69 58 56 125 -34 171 -87 45 -197 60 -522 71 -140
5 -325 16 -410 24 -198 19 -444 27 -494 17z"/>
<path d="M21129 21206 c-2 -2 -76 -12 -164 -21 -191 -20 -225 -28 -265 -61
-41 -35 -43 -98 -4 -138 23 -23 35 -26 91 -26 35 0 94 5 131 10 37 6 128 16
203 24 143 15 188 29 215 70 12 20 13 32 4 65 -16 62 -48 81 -135 81 -39 0
-74 -2 -76 -4z"/>
<path d="M19213 20960 c-44 -9 -703 -224 -818 -267 -309 -115 -652 -286 -879
-437 -128 -86 -383 -284 -467 -363 -36 -35 -76 -82 -89 -106 -22 -42 -22 -44
-6 -79 19 -40 51 -58 102 -58 29 0 46 10 92 53 294 275 457 387 852 587 270
136 284 141 695 283 231 79 465 159 519 177 123 41 151 64 143 122 -11 83 -50
107 -144 88z"/>
<path d="M20075 20873 c-38 -14 -149 -56 -245 -93 -96 -37 -240 -89 -319 -115
-79 -26 -152 -56 -162 -66 -13 -13 -19 -33 -19 -67 0 -40 5 -53 28 -74 15 -14
35 -28 44 -31 17 -6 292 83 563 182 77 29 173 63 213 78 96 34 132 64 132 109
0 41 -22 89 -45 98 -35 13 -123 4 -190 -21z"/>
<path d="M23783 20775 c-67 -29 -68 -100 -3 -165 51 -51 114 -83 167 -84 55
-1 83 26 90 86 7 58 -22 92 -116 142 -76 40 -91 42 -138 21z"/>
<path d="M16205 19186 c-28 -12 -80 -70 -311 -346 -189 -228 -294 -392 -451
-710 -136 -273 -145 -309 -95 -360 23 -23 39 -30 69 -30 22 0 47 6 56 13 9 6
75 129 145 272 179 361 278 509 566 843 139 161 175 211 176 244 0 10 -14 33
-31 53 -34 39 -70 45 -124 21z"/>
<path d="M16895 19164 c-96 -51 -476 -413 -496 -472 -26 -79 60 -150 134 -110
12 6 76 63 143 127 67 64 173 159 237 211 133 109 156 142 138 201 -22 72 -75
87 -156 43z"/>
<path d="M15721 17758 c-38 -20 -61 -59 -81 -134 -58 -221 -67 -460 -25 -631
13 -57 40 -143 59 -191 98 -254 176 -324 262 -238 50 50 46 79 -30 227 -70
136 -88 188 -107 295 -18 107 -7 296 26 424 33 134 36 204 9 231 -26 25 -82
34 -113 17z"/>
<path d="M15253 16754 c-37 -19 -67 -75 -59 -110 13 -50 184 -193 384 -320
204 -130 325 -184 408 -184 41 0 82 35 90 77 10 51 -37 90 -226 189 -171 89
-229 127 -389 252 -76 60 -159 113 -173 112 -2 0 -17 -8 -35 -16z"/>
<path d="M20633 19225 c-18 -8 -74 -49 -125 -92 -51 -43 -157 -127 -236 -186
-182 -136 -622 -525 -667 -589 -20 -30 -250 -281 -438 -479 -92 -97 -206 -225
-253 -285 -46 -60 -122 -156 -168 -214 -46 -58 -121 -159 -166 -225 -84 -120
-220 -297 -381 -497 -130 -161 -201 -261 -318 -456 -59 -97 -150 -234 -203
-304 -136 -178 -157 -226 -124 -274 8 -11 33 -29 56 -39 38 -17 44 -17 68 -3
27 16 171 195 255 318 25 36 70 112 102 170 79 146 146 243 275 400 120 144
143 175 528 692 207 278 276 363 399 490 82 84 214 227 294 318 291 329 618
630 1049 962 200 154 225 184 209 241 -18 62 -84 84 -156 52z"/>
<path d="M17223 17792 c-10 -9 -78 -118 -152 -242 -268 -449 -291 -493 -298
-563 l-5 -53 50 -22 c28 -12 60 -22 71 -22 30 0 68 54 186 265 60 107 138 241
173 298 92 144 129 216 137 264 6 37 3 46 -19 68 -20 20 -35 25 -76 25 -34 0
-55 -5 -67 -18z"/>
<path d="M23270 19443 c-29 -11 -136 -78 -220 -138 -47 -34 -202 -141 -345
-238 -143 -97 -341 -240 -439 -318 -99 -77 -225 -173 -280 -212 -166 -117
-563 -425 -691 -536 -66 -58 -210 -191 -320 -295 -110 -105 -225 -214 -255
-242 -66 -61 -309 -319 -367 -389 -23 -27 -81 -104 -129 -170 -170 -232 -176
-247 -129 -303 48 -57 106 -50 171 20 17 18 100 125 184 238 175 234 264 329
545 583 110 99 259 237 330 307 142 139 492 421 705 570 74 52 212 153 305
225 94 72 355 258 580 415 226 156 427 301 448 322 46 48 50 91 11 137 -25 31
-63 39 -104 24z"/>
<path d="M19485 16086 c-42 -19 -76 -57 -311 -356 -114 -146 -223 -283 -241
-305 -48 -57 -61 -106 -40 -151 16 -32 64 -64 96 -64 29 0 135 120 313 355 42
55 124 156 182 224 151 178 167 222 101 280 -39 34 -55 37 -100 17z"/>
<path d="M18542 14714 c-17 -21 -46 -74 -63 -118 -18 -45 -58 -139 -89 -211
-32 -71 -70 -164 -84 -205 l-27 -75 35 -32 c67 -62 117 -53 169 29 48 77 224
489 233 547 9 56 -25 92 -92 98 -49 5 -52 4 -82 -33z"/>
<path d="M24259 18572 c-58 -29 -66 -124 -14 -158 13 -8 57 -28 97 -44 40 -15
102 -40 138 -55 35 -15 81 -30 102 -33 33 -4 42 0 73 31 67 67 34 125 -110
192 -159 74 -236 92 -286 67z"/>
<path d="M22826 17707 c-22 -39 -21 -112 2 -135 11 -11 60 -28 118 -41 54 -12
230 -58 389 -101 330 -90 343 -93 670 -161 281 -59 575 -140 756 -209 71 -27
155 -56 186 -64 l56 -15 34 34 c44 44 45 91 4 133 -29 29 -206 104 -406 172
-92 32 -608 155 -771 184 -94 17 -545 132 -649 166 -96 31 -193 51 -286 59
l-86 6 -17 -28z"/>
<path d="M21684 16576 c-47 -47 -47 -95 -1 -141 42 -42 80 -52 243 -66 71 -6
207 -24 302 -40 135 -23 203 -29 315 -29 130 0 155 -3 281 -35 172 -43 232
-45 275 -9 24 20 31 34 31 63 0 73 -34 94 -230 141 -92 23 -168 33 -290 41
-189 12 -771 82 -813 98 -49 19 -77 13 -113 -23z"/>
<path d="M23835 16172 c-32 -8 -53 -48 -54 -104 -2 -59 32 -73 404 -168 127
-32 322 -88 434 -124 112 -37 211 -66 221 -66 10 0 34 18 54 40 58 64 45 115
-42 159 -59 29 -271 98 -482 156 -377 104 -468 122 -535 107z"/>
<path d="M16634 4588 c-39 -78 -45 -97 -40 -132 3 -23 5 -102 3 -176 -6 -382
2 -559 34 -685 5 -22 16 -121 24 -220 10 -143 17 -188 33 -218 12 -22 24 -64
28 -95 3 -32 15 -73 26 -93 11 -19 30 -71 42 -115 18 -65 26 -81 49 -92 16 -8
29 -24 33 -40 10 -48 37 -102 77 -155 21 -29 44 -66 52 -83 7 -17 44 -56 81
-86 38 -31 80 -66 94 -80 14 -14 34 -30 45 -36 29 -15 178 -52 209 -52 27 0
198 80 229 108 21 19 127 233 127 257 0 10 12 61 26 114 22 81 26 109 21 176
-17 224 -28 325 -42 375 -8 30 -24 88 -35 129 -27 102 -102 255 -134 276 -15
10 -44 54 -69 104 -113 229 -147 286 -182 310 -20 14 -54 55 -77 93 -23 38
-56 80 -73 94 -18 14 -42 46 -53 72 -12 26 -47 77 -80 112 -32 36 -69 84 -80
106 -38 74 -72 99 -151 112 -38 7 -93 12 -120 12 l-51 0 -46 -92z m473 -863
c18 -44 46 -98 62 -120 15 -22 40 -64 55 -93 15 -29 42 -70 62 -92 24 -26 41
-60 54 -107 10 -38 28 -90 39 -117 14 -31 21 -69 21 -111 0 -34 7 -79 15 -98
8 -20 15 -55 15 -78 0 -63 -39 -219 -55 -219 -16 0 -45 27 -45 41 0 5 -20 32
-45 58 -79 85 -178 342 -196 512 -6 57 -15 109 -20 114 -11 14 -12 77 -4 205
6 82 4 115 -8 148 -14 39 -14 43 1 40 10 -2 30 -36 49 -83z"/>
<path d="M20171 14959 c-33 -13 -131 -116 -191 -201 -63 -89 -66 -124 -16
-174 49 -49 75 -45 143 19 62 58 162 187 182 234 11 26 10 36 -3 62 -21 40
-82 72 -115 60z"/>
<path d="M21838 15103 c-52 -57 -173 -237 -189 -281 -15 -43 13 -91 64 -111
73 -27 111 9 240 227 37 62 67 116 67 121 0 5 -18 27 -40 50 -55 57 -84 56
-142 -6z"/>
<path d="M21162 14305 c-17 -19 -42 -54 -55 -77 -14 -24 -82 -144 -152 -268
-136 -239 -202 -339 -340 -515 -167 -213 -192 -295 -105 -340 62 -32 118 -8
157 70 9 16 59 84 112 150 135 169 236 323 395 602 164 288 181 339 131 388
-18 19 -35 25 -69 25 -38 0 -48 -5 -74 -35z"/>
<path d="M19903 12155 c-12 -8 -29 -39 -39 -68 -34 -106 -115 -298 -219 -522
-176 -379 -229 -520 -218 -579 6 -30 53 -73 91 -83 32 -8 72 13 89 47 7 14 37
88 67 165 29 77 119 284 199 461 173 382 179 399 181 487 1 61 -2 71 -23 88
-28 23 -97 25 -128 4z"/>
<path d="M21767 13188 c-42 -45 -98 -151 -386 -728 -348 -697 -437 -886 -447
-951 -6 -35 -3 -42 29 -74 25 -25 44 -35 66 -35 62 0 86 38 286 460 221 465
373 772 496 1002 97 179 138 274 131 298 -2 8 -18 30 -35 48 -47 49 -79 44
-140 -20z"/>
<path d="M24843 14600 c-48 -15 -76 -57 -70 -103 10 -70 29 -81 179 -97 90 -9
184 -26 358 -61 100 -21 160 15 160 96 0 30 -6 47 -22 62 -34 30 -33 30 -214
68 -178 38 -336 52 -391 35z"/>
<path d="M14981 13195 c-18 -8 -92 -58 -165 -112 -72 -53 -160 -118 -196 -144
-36 -26 -83 -66 -104 -88 -39 -40 -39 -41 -27 -80 13 -46 52 -81 90 -81 15 0
58 18 95 41 99 60 345 241 395 290 41 41 43 46 38 89 -4 35 -12 51 -38 72 -38
32 -42 32 -88 13z"/>
<path d="M12660 12113 c-44 -16 -151 -90 -280 -194 -80 -64 -217 -171 -305
-238 -88 -67 -193 -151 -232 -187 -64 -57 -410 -465 -534 -629 -59 -78 -109
-167 -109 -194 0 -48 48 -101 91 -101 34 0 84 39 131 104 93 126 380 489 432
546 82 89 181 174 356 308 91 69 192 148 225 177 91 79 164 123 225 136 69 15
103 48 125 123 19 65 9 115 -28 141 -21 15 -68 19 -97 8z"/>
<path d="M10863 9941 c-27 -17 -32 -27 -37 -73 -12 -128 -26 -328 -26 -385 0
-58 2 -63 32 -84 40 -29 84 -29 131 0 35 21 37 26 37 74 0 29 7 124 15 212 21
236 22 227 -24 253 -48 27 -86 28 -128 3z"/>
<path d="M13224 8780 c-37 -15 -67 -67 -58 -98 5 -15 8 -112 8 -217 0 -188 0
-191 -31 -270 -16 -44 -52 -124 -79 -178 -45 -93 -53 -102 -134 -166 -118 -94
-175 -131 -234 -153 -65 -25 -240 -64 -330 -73 -58 -6 -74 -12 -98 -35 -55
-55 -28 -147 49 -166 73 -19 391 49 508 109 153 77 316 214 384 322 49 77 111
220 147 340 25 83 27 103 27 265 0 189 -9 244 -49 298 -26 34 -63 41 -110 22z"/>
<path d="M10990 8638 c-52 -35 -59 -66 -31 -146 41 -120 100 -231 151 -284 48
-49 50 -51 96 -45 61 6 77 24 76 82 0 36 -16 77 -77 198 -105 208 -143 243
-215 195z"/>
<path d="M25263 11050 c-183 -10 -355 -23 -382 -30 -63 -15 -84 -38 -84 -93 0
-102 38 -116 271 -98 301 24 509 31 1107 37 605 7 901 -1 1170 -31 72 -8 163
-15 203 -15 57 0 99 -8 195 -39 163 -52 171 -54 211 -37 33 14 56 54 56 96 0
77 -184 154 -441 184 -255 31 -478 38 -1224 41 -629 3 -804 1 -1082 -15z"/>
<path d="M23214 10736 c-22 -7 -112 -52 -200 -99 -193 -104 -266 -136 -504
-222 -273 -98 -333 -129 -875 -453 -88 -53 -288 -169 -444 -259 -421 -243
-473 -283 -457 -347 9 -37 59 -86 87 -86 20 0 381 206 1129 644 368 215 402
232 695 341 211 78 303 118 453 194 144 74 231 126 248 149 23 29 17 79 -13
111 -34 37 -66 44 -119 27z"/>
<path d="M26505 9000 c-197 -14 -981 -155 -1165 -210 -75 -22 -111 -85 -84
-148 23 -57 77 -65 205 -33 173 44 385 85 704 137 l340 55 380 6 c467 7 803
-7 1018 -42 158 -26 268 -32 311 -15 53 20 78 109 42 149 -19 21 -33 24 -351
72 l-210 32 -540 2 c-297 2 -589 -1 -650 -5z"/>
<path d="M19765 8657 c-21 -12 -106 -96 -187 -187 -387 -430 -474 -537 -674
-828 -148 -217 -208 -323 -200 -355 7 -30 54 -73 87 -81 49 -11 86 29 237 254
209 311 279 401 577 735 148 165 276 314 286 330 30 48 25 88 -16 124 -42 37
-57 38 -110 8z"/>
<path d="M23750 8465 c-215 -53 -746 -325 -1307 -668 -147 -90 -289 -175 -315
-190 -94 -54 -116 -127 -57 -186 17 -17 39 -31 50 -31 30 0 155 67 359 190
225 137 948 531 1045 570 196 78 335 155 354 196 14 32 -4 88 -36 114 -14 11
-28 20 -32 19 -3 0 -31 -7 -61 -14z"/>
<path d="M8716 8195 c-13 -14 -34 -54 -46 -88 -13 -34 -40 -96 -61 -137 -52
-103 -58 -135 -60 -290 0 -113 3 -152 25 -240 14 -58 32 -157 41 -220 28 -208
66 -412 81 -441 27 -52 107 -84 152 -60 40 21 46 75 24 197 -12 60 -28 161
-37 224 -8 63 -22 153 -29 200 -24 145 -27 203 -16 321 14 155 35 266 72 380
28 87 30 98 17 124 -28 59 -121 75 -163 30z"/>
<path d="M27245 7549 c-33 -19 -45 -41 -45 -84 0 -52 31 -89 86 -104 27 -7
182 -9 494 -5 594 8 1134 -7 1275 -37 114 -23 177 -19 213 14 26 24 29 74 7
117 -20 40 -73 56 -255 81 -145 20 -205 22 -955 26 -588 2 -805 0 -820 -8z"/>
<path d="M25740 7415 c-90 -42 -256 -95 -515 -165 -150 -41 -288 -90 -660
-237 -258 -102 -483 -192 -500 -200 -80 -40 -104 -97 -70 -162 16 -33 33 -41
80 -41 47 0 92 16 369 135 294 125 559 228 686 267 240 74 717 195 931 238 68
13 86 31 98 95 17 93 -10 114 -133 100 -79 -10 -136 -10 -181 -1 -21 3 -51 -5
-105 -29z"/>
<path d="M30314 6893 c-39 -7 -67 -48 -66 -95 3 -66 9 -75 77 -115 98 -58 415
-336 463 -408 128 -187 146 -334 88 -729 -23 -158 -24 -172 -9 -203 17 -36 57
-63 94 -63 37 0 85 59 98 120 13 67 38 296 47 445 13 224 -41 404 -175 580
-102 133 -341 342 -482 421 -81 45 -104 53 -135 47z"/>
<path d="M26090 6444 c-47 -7 -193 -27 -325 -44 -409 -52 -545 -79 -860 -170
-321 -92 -543 -178 -876 -338 -91 -44 -229 -108 -307 -142 -219 -96 -264 -132
-248 -196 4 -14 21 -40 37 -57 50 -50 49 -50 524 173 383 180 558 252 774 319
389 122 603 164 1146 226 173 20 304 41 373 61 l52 15 0 62 c0 97 -11 107
-118 106 -48 -1 -125 -7 -172 -15z"/>
<path d="M29429 6333 c-20 -5 -29 -62 -29 -172 0 -92 14 -146 45 -177 40 -40
128 -29 160 20 15 22 16 39 7 134 -10 109 -28 164 -61 189 -15 12 -88 15 -122
6z"/>
<path d="M22965 6321 c-57 -14 -220 -84 -355 -151 -194 -98 -334 -186 -473
-298 -67 -54 -194 -147 -282 -207 -149 -102 -178 -127 -433 -379 -372 -369
-454 -466 -604 -715 -89 -147 -138 -245 -187 -373 -84 -222 -97 -295 -59 -343
19 -24 26 -27 65 -21 24 3 53 10 63 16 19 10 70 98 70 120 0 6 20 65 45 131
121 323 279 561 569 859 94 96 203 210 241 254 84 94 141 140 345 278 85 57
214 152 285 209 229 185 297 225 605 354 244 102 237 98 251 143 29 99 -32
150 -146 123z"/>
<path d="M27332 6199 c-83 -10 -169 -23 -190 -29 -55 -18 -92 -57 -92 -97 0
-42 24 -90 49 -98 36 -11 433 35 471 55 29 15 40 43 40 98 0 33 -5 54 -16 63
-27 23 -105 25 -262 8z"/>
<path d="M28081 5809 c-36 -35 -41 -81 -13 -116 9 -12 46 -38 82 -59 143 -81
213 -143 255 -224 24 -46 24 -158 -1 -237 -21 -69 -113 -208 -233 -352 -213
-259 -262 -329 -263 -382 -1 -38 43 -86 88 -95 41 -8 83 29 175 151 37 50 98
127 136 170 93 108 209 274 255 364 85 168 89 331 13 487 -68 140 -307 324
-420 324 -35 0 -49 -6 -74 -31z"/>
<path d="M26470 5293 c-113 -5 -330 -33 -485 -63 -82 -16 -226 -40 -320 -55
-517 -80 -778 -148 -955 -247 -128 -71 -253 -209 -358 -392 -71 -124 -94 -197
-94 -300 1 -147 36 -221 105 -219 41 1 83 26 94 56 4 12 8 72 8 132 0 99 3
116 27 169 60 127 185 286 272 345 70 48 195 98 351 141 186 50 282 69 605
120 140 21 287 46 326 54 39 8 152 24 250 35 252 29 304 50 304 127 0 31 -36
96 -55 99 -5 0 -39 0 -75 -2z"/>
<path d="M21819 5174 c-153 -108 -259 -196 -354 -295 -251 -260 -447 -545
-462 -669 -5 -43 -3 -51 20 -74 33 -33 92 -35 130 -6 14 11 44 55 68 98 155
283 437 593 701 770 141 95 166 167 78 226 -46 30 -80 21 -181 -50z"/>
<path d="M30558 4886 c-14 -7 -43 -52 -78 -121 -66 -132 -237 -414 -330 -545
-109 -153 -352 -378 -645 -598 -55 -41 -108 -84 -117 -96 -34 -41 -15 -118 36
-145 59 -32 147 24 482 304 264 220 317 278 487 535 175 263 213 326 263 440
48 109 59 179 33 205 -22 22 -103 35 -131 21z"/>
<path d="M22834 4783 c-20 -38 -63 -111 -94 -163 -90 -148 -103 -179 -104
-237 -1 -59 15 -82 75 -107 33 -14 37 -13 67 10 20 16 49 59 75 112 23 48 75
141 115 208 39 67 72 131 72 144 0 12 -10 40 -22 61 -22 39 -22 39 -84 39
l-63 0 -37 -67z"/>
<path d="M26445 4528 c-33 -19 -44 -41 -45 -89 0 -51 16 -73 63 -85 31 -7 107
-73 107 -92 0 -7 -17 -19 -37 -27 -78 -33 -168 -44 -368 -48 -223 -4 -262 -12
-289 -66 -36 -69 -9 -118 78 -142 70 -19 350 -5 493 25 144 31 215 60 272 112
54 48 71 82 71 141 0 83 -94 209 -195 262 -44 23 -118 27 -150 9z"/>
<path d="M28480 3954 c-39 -18 -148 -80 -243 -137 -380 -229 -556 -304 -1120
-482 -292 -92 -529 -177 -550 -198 -16 -16 -18 -29 -14 -70 6 -69 42 -102 101
-94 45 7 973 315 1098 365 106 43 309 140 393 189 439 254 503 295 511 329 12
46 -33 115 -83 127 -14 3 -49 -8 -93 -29z"/>
<path d="M25170 3778 c-27 -30 -28 -106 0 -140 15 -19 35 -28 82 -37 147 -25
354 -44 508 -45 145 -1 169 1 194 17 40 27 60 79 46 123 -19 55 -40 61 -280
67 -118 4 -260 13 -315 21 -149 23 -210 21 -235 -6z"/>
<path d="M21317 3440 c-63 -19 -70 -53 -42 -190 26 -123 36 -154 58 -177 39
-43 150 -21 163 32 7 30 -11 164 -32 237 -9 28 -29 64 -44 80 -29 29 -53 33
-103 18z"/>
<path d="M28125 3076 c-22 -7 -119 -53 -215 -102 -258 -133 -463 -224 -705
-314 -118 -44 -282 -107 -363 -139 -81 -33 -192 -73 -247 -91 -55 -17 -185
-60 -290 -95 -272 -91 -384 -117 -640 -150 -75 -10 -246 -46 -405 -86 -151
-37 -327 -77 -390 -88 -63 -11 -167 -31 -230 -46 l-115 -27 -355 5 c-369 6
-374 6 -760 67 -196 30 -610 60 -662 47 -31 -8 -48 -45 -48 -107 0 -52 16 -77
53 -84 12 -3 114 -10 227 -16 136 -8 245 -20 324 -36 138 -28 291 -47 601 -74
247 -22 426 -25 560 -9 133 15 601 110 835 169 121 30 287 63 405 80 110 16
234 38 275 49 188 49 821 255 965 313 88 36 239 94 335 128 96 34 240 93 320
130 294 138 621 302 650 327 34 28 37 50 14 116 -16 46 -17 47 -57 46 -23 0
-60 -6 -82 -13z"/>
<path d="M22627 2712 c-20 -21 -37 -46 -37 -56 0 -52 127 -129 314 -192 300
-101 550 -127 1139 -117 l338 6 25 43 c24 41 25 52 8 116 -10 35 -98 42 -549
43 -560 2 -690 19 -968 129 -121 47 -180 66 -212 66 -12 0 -38 -17 -58 -38z"/>
<path d="M20673 2730 c-35 -14 -56 -55 -50 -98 3 -29 41 -88 162 -253 194
-264 249 -332 331 -409 65 -61 87 -69 127 -49 77 40 89 99 33 170 -19 24 -60
68 -91 98 -33 32 -105 127 -171 227 -182 276 -259 347 -341 314z"/>
</g>
</svg>
